<svg width="20" height="20" viewBox="0 0 20 20" fill="none" xmlns="http://www.w3.org/2000/svg">
<path opacity="0.7" fill-rule="evenodd" clip-rule="evenodd" d="M11.547 8L7.34699 13.04C6.06699 14.576 8.37199 16.497 9.65199 14.96L14.609 9.012C14.865 8.74 15.029 8.382 15.027 8C15.029 7.618 14.865 7.26 14.609 6.988L9.65199 1.04C8.37199 -0.496998 6.06699 1.424 7.34799 2.96L11.548 8H11.547Z" fill="#A5AFFB" fill-opacity="0.4"/>
<path d="M7.11597 4.32L12.116 10.32L12.884 9.68L7.88397 3.68L7.11597 4.32Z" fill="white"/>
<path d="M7.88402 3.68L12.884 9.68C13.311 10.192 12.543 10.832 12.116 10.32L7.11603 4.32C6.68903 3.808 7.45702 3.168 7.88402 3.68Z" fill="#F0F2FE"/>
<path d="M7.88397 16.32L12.884 10.32L12.116 9.68L7.11597 15.68L7.88397 16.32Z" fill="white"/>
<path d="M7.11603 15.68L12.116 9.68C12.543 9.168 13.311 9.808 12.884 10.32L7.88402 16.32C7.45702 16.832 6.68903 16.192 7.11603 15.68Z" fill="#F0F2FE"/>
</svg>
