<svg width="17" height="16" viewBox="0 0 17 16" fill="none" xmlns="http://www.w3.org/2000/svg">
<path opacity="0.8" fill-rule="evenodd" clip-rule="evenodd" d="M10.6531 14.555L16.5823 3.88098C17.7475 1.78338 14.6023 0.0349753 13.4359 2.13378L8.46914 11.0714L4.13234 7.60218C2.25794 6.10218 0.0091424 8.91378 1.88354 10.4126L7.77074 15.1226C7.83674 15.1826 7.90754 15.2366 7.98194 15.287C8.44634 15.6194 8.92874 15.6974 9.36194 15.6026C9.79874 15.5258 10.2151 15.2714 10.5187 14.7866C10.5679 14.7134 10.6135 14.6354 10.6507 14.555H10.6531Z" fill="#43FFC9" fill-opacity="0.24"/>
<path d="M13.1335 0.898963L7.13354 11.699C6.74474 12.3986 5.69594 11.8154 6.08474 11.1158L12.0847 0.315763C12.4735 -0.383836 13.5223 0.199364 13.1335 0.898963Z" fill="#00E3A2"/>
<path d="M0.983537 6.13938L6.98354 10.9394C7.60754 11.4386 6.85874 12.3758 6.23474 11.8754L0.234737 7.07538C-0.389263 6.57618 0.359537 5.63898 0.983537 6.13938Z" fill="#00E3A2"/>
</svg>
