<svg width="22" height="22" viewBox="0 0 22 22" fill="none" xmlns="http://www.w3.org/2000/svg">
<path opacity="0.7" d="M17 7.40001H20.2C20.6243 7.40001 21.0313 7.56858 21.3313 7.86864C21.6314 8.16869 21.8 8.57566 21.8 9.00001V20.2C21.8 20.6244 21.6314 21.0313 21.3313 21.3314C21.0313 21.6314 20.6243 21.8 20.2 21.8H8.99998C8.57563 21.8 8.16866 21.6314 7.8686 21.3314C7.56855 21.0313 7.39998 20.6244 7.39998 20.2V17H4.19998C3.77563 17 3.36866 16.8314 3.06861 16.5314C2.76855 16.2313 2.59998 15.8244 2.59998 15.4V4.20001C2.59998 3.77566 2.76855 3.36869 3.06861 3.06864C3.36866 2.76858 3.77563 2.60001 4.19998 2.60001H15.4C15.8243 2.60001 16.2313 2.76858 16.5313 3.06864C16.8314 3.36869 17 3.77566 17 4.20001V7.40001Z" fill="#A5AFFB" fill-opacity="0.4"/>
<path fill-rule="evenodd" clip-rule="evenodd" d="M17 5H5.8C5.58783 5 5.38434 5.08429 5.23431 5.23431C5.08429 5.38434 5 5.58783 5 5.8V17C5 17.2122 5.08429 17.4157 5.23431 17.5657C5.38434 17.7157 5.58783 17.8 5.8 17.8H17C17.2122 17.8 17.4157 17.7157 17.5657 17.5657C17.7157 17.4157 17.8 17.2122 17.8 17V5.8C17.8 5.58783 17.7157 5.38434 17.5657 5.23431C17.4157 5.08429 17.2122 5 17 5ZM6.6 16.2V6.6H16.2V16.2H6.6Z" fill="white"/>
<path d="M1.79995 11.4H6.59995V13H0.999951C0.787778 13 0.584295 12.9157 0.434266 12.7657C0.284237 12.6157 0.199951 12.4122 0.199951 12.2V1.00001C0.199951 0.787839 0.284237 0.584356 0.434266 0.434327C0.584295 0.284298 0.787778 0.200012 0.999951 0.200012H12.2C12.4121 0.200012 12.6156 0.284298 12.7656 0.434327C12.9157 0.584356 13 0.787839 13 1.00001V6.60001H11.4V1.80001H1.79995V11.4Z" fill="white"/>
</svg>
