<svg width="20" height="20" viewBox="0 0 20 20" fill="none" xmlns="http://www.w3.org/2000/svg">
<path opacity="0.7" fill-rule="evenodd" clip-rule="evenodd" d="M12.0001 11.5471L6.9601 7.34711C5.4241 6.06711 3.5031 8.37211 5.0401 9.65211L10.9881 14.6091C11.2601 14.8651 11.6181 15.0291 12.0001 15.0271C12.3821 15.0291 12.7401 14.8651 13.0121 14.6091L18.9601 9.65211C20.4971 8.37211 18.5761 6.06711 17.0401 7.34811L12.0001 11.5481V11.5471Z" fill="#A5AFFB" fill-opacity="0.4"/>
<path d="M15.6801 7.11621L9.68005 12.1162L10.3201 12.8842L16.3201 7.88421L15.6801 7.11621V7.11621Z" fill="white"/>
<path d="M16.3201 7.88415L10.3201 12.8841C9.80805 13.3111 9.16805 12.5431 9.68005 12.1161L15.6801 7.11615C16.1921 6.68915 16.8321 7.45715 16.3201 7.88415V7.88415Z" fill="#5353FF"/>
<path d="M3.68005 7.88421L9.68005 12.8842L10.3201 12.1162L4.32005 7.11621L3.68005 7.88421V7.88421Z" fill="#5353FF"/>
<path d="M4.32005 7.11615L10.3201 12.1161C10.8321 12.5431 10.1921 13.3111 9.68005 12.8841L3.68005 7.88415C3.16805 7.45715 3.80805 6.68915 4.32005 7.11615V7.11615Z" fill="#5353FF"/>
</svg>
