<svg width="48" height="48" viewBox="0 0 48 48" fill="none" xmlns="http://www.w3.org/2000/svg">
<rect width="48" height="48" rx="24" fill="#A5AFFB" fill-opacity="0.08"/>
<path d="M36.6022 16.3724C35.6975 16.7733 34.7255 17.0441 33.7038 17.1666C34.7581 16.5358 35.5468 15.5429 35.9228 14.3733C34.9323 14.9616 33.8483 15.3757 32.7178 15.5977C31.9576 14.786 30.9507 14.248 29.8534 14.0672C28.756 13.8864 27.6297 14.0729 26.6493 14.5978C25.6689 15.1228 24.8892 15.9567 24.4313 16.9701C23.9734 17.9836 23.8629 19.1199 24.1169 20.2026C22.1099 20.1018 20.1465 19.5802 18.3542 18.6715C16.5618 17.7628 14.9806 16.4874 13.713 14.928C13.2796 15.6757 13.0304 16.5425 13.0304 17.4656C13.0299 18.2967 13.2346 19.115 13.6262 19.848C14.0178 20.581 14.5843 21.2059 15.2755 21.6675C14.474 21.642 13.6901 21.4254 12.9892 21.0358V21.1008C12.9892 22.2664 13.3923 23.3961 14.1304 24.2982C14.8684 25.2004 15.8958 25.8194 17.0383 26.0503C16.2948 26.2515 15.5153 26.2811 14.7586 26.137C15.081 27.1399 15.7089 28.0169 16.5544 28.6452C17.3999 29.2735 18.4208 29.6217 19.4741 29.641C17.6861 31.0446 15.4779 31.806 13.2049 31.8026C12.8022 31.8027 12.3999 31.7792 12 31.7322C14.3073 33.2157 16.9932 34.003 19.7363 34C29.0219 34 34.0982 26.3092 34.0982 19.6391C34.0982 19.4224 34.0928 19.2036 34.083 18.9869C35.0704 18.2728 35.9227 17.3886 36.6 16.3756L36.6022 16.3724Z" fill="#5353FF"/>
</svg>
