<svg width="48" height="48" viewBox="0 0 48 48" fill="none" xmlns="http://www.w3.org/2000/svg">
<rect width="48" height="48" rx="24" fill="#A5AFFB" fill-opacity="0.08"/>
<path d="M14 15.4325C14 14.6413 14.6575 14 15.4688 14H32.5312C33.3425 14 34 14.6413 34 15.4325V32.5675C34 33.3587 33.3425 34 32.5312 34H15.4688C14.6575 34 14 33.3587 14 32.5675V15.4325ZM20.1788 30.7425V21.7113H17.1775V30.7425H20.1788ZM18.6788 20.4775C19.725 20.4775 20.3762 19.785 20.3762 18.9175C20.3575 18.0312 19.7263 17.3575 18.6988 17.3575C17.6713 17.3575 17 18.0325 17 18.9175C17 19.785 17.6512 20.4775 18.6588 20.4775H18.6788ZM24.8138 30.7425V25.6988C24.8138 25.4288 24.8337 25.1587 24.9137 24.9662C25.13 24.4275 25.6238 23.8687 26.4538 23.8687C27.54 23.8687 27.9738 24.6962 27.9738 25.9113V30.7425H30.975V25.5625C30.975 22.7875 29.495 21.4975 27.52 21.4975C25.9275 21.4975 25.2137 22.3725 24.8138 22.9888V23.02H24.7938C24.8004 23.0096 24.8071 22.9991 24.8138 22.9888V21.7113H21.8137C21.8512 22.5588 21.8137 30.7425 21.8137 30.7425H24.8138Z" fill="#5353FF"/>
</svg>
