<svg width="48" height="48" viewBox="0 0 48 48" fill="none" xmlns="http://www.w3.org/2000/svg">
<rect width="48" height="48" rx="24" fill="#A5AFFB" fill-opacity="0.08"/>
<path fill-rule="evenodd" clip-rule="evenodd" d="M24 12C17.37 12 12 17.37 12 24C12 29.31 15.435 33.795 20.205 35.385C20.805 35.49 21.03 35.13 21.03 34.815C21.03 34.53 21.015 33.585 21.015 32.58C18 33.135 17.22 31.845 16.98 31.17C16.845 30.825 16.26 29.76 15.75 29.475C15.33 29.25 14.73 28.695 15.735 28.68C16.68 28.665 17.355 29.55 17.58 29.91C18.66 31.725 20.385 31.215 21.075 30.9C21.18 30.12 21.495 29.595 21.84 29.295C19.17 28.995 16.38 27.96 16.38 23.37C16.38 22.065 16.845 20.985 17.61 20.145C17.49 19.845 17.07 18.615 17.73 16.965C17.73 16.965 18.735 16.65 21.03 18.195C21.99 17.925 23.01 17.79 24.03 17.79C25.05 17.79 26.07 17.925 27.03 18.195C29.325 16.635 30.33 16.965 30.33 16.965C30.99 18.615 30.57 19.845 30.45 20.145C31.215 20.985 31.68 22.05 31.68 23.37C31.68 27.975 28.875 28.995 26.205 29.295C26.64 29.67 27.015 30.39 27.015 31.515C27.015 33.12 27 34.41 27 34.815C27 35.13 27.225 35.505 27.825 35.385C30.2072 34.5807 32.2772 33.0497 33.7437 31.0074C35.2101 28.965 35.9993 26.5143 36 24C36 17.37 30.63 12 24 12Z" fill="#5353FF"/>
</svg>
