<svg width="154" height="32" viewBox="0 0 154 32" fill="none" xmlns="http://www.w3.org/2000/svg">
<g clip-path="url(#clip0_1:15)">
<path d="M31.952 14.751C30.5165 13.2648 29.0634 11.7957 27.593 10.344C23.932 6.734 20.16 3.182 16.171 0C17.805 0.017 19.381 0.28 20.863 0.751C24.35 3.865 27.709 7.149 31.026 10.488C31.519 11.834 31.837 13.264 31.952 14.75V14.751ZM30.564 22.634C28.068 20.037 25.513 17.514 22.827 15.163C19.121 11.917 12.134 5.353 7.09102 7.745C2.53902 9.903 2.37402 18.288 2.13102 23.983C0.730761 21.5558 -0.004311 18.8021 1.90196e-05 16C1.90196e-05 9.799 3.52802 4.421 8.68602 1.766C10.506 2.359 12.279 3.441 13.724 4.353C20.293 8.493 26.014 14.063 31.516 19.923C31.279 20.863 30.959 21.769 30.564 22.634ZM26.059 28.444C25.7265 28.1658 25.3909 27.8914 25.052 27.621C22.478 25.567 18.965 22.816 15.658 23.577C12.636 24.272 11.394 27.844 10.688 31.097C9.39174 30.6408 8.15986 30.019 7.02302 29.247C7.38902 26.005 7.91302 22.572 9.42802 19.883C11.743 15.776 15.715 16.811 19.041 18.751C22.401 20.711 25.458 23.323 28.354 26.168C27.6673 27.0014 26.8984 27.7636 26.059 28.443V28.444Z" fill="#5353FF"/>
</g>
<path d="M42.8807 22H45.6932V17.3239H50.3182V15.0341H45.6932V12.6477H50.8239V10.3636H42.8807V22ZM53.0401 22H55.8185V13.2727H53.0401V22ZM54.4321 12.2557C55.2219 12.2557 55.8582 11.6591 55.8582 10.9261C55.8582 10.1932 55.2219 9.60227 54.4321 9.60227C53.648 9.60227 53.006 10.1932 53.006 10.9261C53.006 11.6591 53.648 12.2557 54.4321 12.2557ZM61.1653 10.3636H58.3869V22H61.1653V10.3636ZM63.7338 10.3636V22H66.4724V14.8125H66.569L69.3645 21.9261H71.1145L73.9099 14.8523H74.0065V22H76.7452V10.3636H73.2622L70.3077 17.5682H70.1713L67.2168 10.3636H63.7338ZM79.2994 22H82.0778V13.2727H79.2994V22ZM80.6915 12.2557C81.4813 12.2557 82.1176 11.6591 82.1176 10.9261C82.1176 10.1932 81.4813 9.60227 80.6915 9.60227C79.9074 9.60227 79.2653 10.1932 79.2653 10.9261C79.2653 11.6591 79.9074 12.2557 80.6915 12.2557ZM87.4247 17.0227C87.4304 16.0284 88.0099 15.4375 88.8906 15.4375C89.7713 15.4375 90.294 16.017 90.2884 16.983V22H93.0668V16.4375C93.0724 14.4716 91.8736 13.1591 90.0384 13.1591C88.7486 13.1591 87.7713 13.8125 87.3849 14.875H87.2884V13.2727H84.6463V22H87.4247V17.0227ZM99.6665 22.1648C101.956 22.1648 103.462 21.0568 103.78 19.3409L101.229 19.267C101.013 19.8466 100.445 20.1591 99.7176 20.1591C98.6494 20.1591 97.9903 19.4489 97.9903 18.3807V18.3068H103.809V17.6136C103.809 14.7386 102.059 13.1591 99.5812 13.1591C96.9449 13.1591 95.2517 14.9659 95.2517 17.6705C95.2517 20.4659 96.9222 22.1648 99.6665 22.1648ZM97.9903 16.6932C98.0301 15.8239 98.7176 15.1648 99.6381 15.1648C100.553 15.1648 101.212 15.8011 101.223 16.6932H97.9903Z" fill="white"/>
<path d="M125.898 22H124.82V21.3281C124.513 21.6042 124.174 21.8151 123.805 21.9609C123.44 22.1068 123.065 22.1797 122.68 22.1797C122.102 22.1797 121.583 22.0859 121.125 21.8984C120.667 21.7109 120.279 21.4505 119.961 21.1172C119.648 20.7786 119.406 20.375 119.234 19.9062C119.068 19.4375 118.984 18.9245 118.984 18.3672C118.984 17.8151 119.068 17.3047 119.234 16.8359C119.406 16.362 119.648 15.9583 119.961 15.625C120.279 15.2865 120.667 15.0234 121.125 14.8359C121.583 14.6432 122.102 14.5469 122.68 14.5469C123.065 14.5469 123.44 14.6172 123.805 14.7578C124.174 14.8932 124.513 15.099 124.82 15.375V12.7188H123.367V11.8047H125.898V22ZM124.82 16.4141C124.513 16.0755 124.177 15.8307 123.812 15.6797C123.453 15.5286 123.07 15.4531 122.664 15.4531C122.237 15.4531 121.859 15.5286 121.531 15.6797C121.208 15.8307 120.938 16.0365 120.719 16.2969C120.5 16.5573 120.333 16.8646 120.219 17.2188C120.109 17.5677 120.055 17.9505 120.055 18.3672C120.055 18.7839 120.109 19.1693 120.219 19.5234C120.333 19.8724 120.5 20.1771 120.719 20.4375C120.938 20.6979 121.208 20.9036 121.531 21.0547C121.859 21.2057 122.237 21.2812 122.664 21.2812C123.487 21.2812 124.206 20.9557 124.82 20.3047V16.4141ZM135.203 18.3828C135.203 18.9505 135.112 19.4661 134.93 19.9297C134.753 20.3932 134.495 20.7917 134.156 21.125C133.823 21.4531 133.422 21.7109 132.953 21.8984C132.484 22.0859 131.961 22.1797 131.383 22.1797C130.815 22.1797 130.297 22.0859 129.828 21.8984C129.359 21.7109 128.956 21.4531 128.617 21.125C128.284 20.7917 128.026 20.3932 127.844 19.9297C127.667 19.4661 127.578 18.9505 127.578 18.3828C127.578 17.8307 127.667 17.3177 127.844 16.8438C128.026 16.3646 128.284 15.9583 128.617 15.625C128.956 15.2865 129.359 15.0234 129.828 14.8359C130.297 14.6432 130.815 14.5469 131.383 14.5469C131.961 14.5469 132.484 14.6432 132.953 14.8359C133.422 15.0234 133.823 15.2865 134.156 15.625C134.495 15.9583 134.753 16.3646 134.93 16.8438C135.112 17.3177 135.203 17.8307 135.203 18.3828ZM134.133 18.3828C134.133 17.9661 134.07 17.5833 133.945 17.2344C133.826 16.8802 133.646 16.5703 133.406 16.3047C133.167 16.0391 132.875 15.8307 132.531 15.6797C132.193 15.5286 131.81 15.4531 131.383 15.4531C130.956 15.4531 130.57 15.5286 130.227 15.6797C129.888 15.8307 129.602 16.0391 129.367 16.3047C129.133 16.5703 128.953 16.8802 128.828 17.2344C128.708 17.5833 128.648 17.9661 128.648 18.3828C128.648 18.7995 128.708 19.1849 128.828 19.5391C128.953 19.888 129.133 20.1901 129.367 20.4453C129.602 20.7005 129.888 20.901 130.227 21.0469C130.57 21.1927 130.956 21.2656 131.383 21.2656C131.81 21.2656 132.193 21.1927 132.531 21.0469C132.875 20.901 133.167 20.7005 133.406 20.4453C133.646 20.1901 133.826 19.888 133.945 19.5391C134.07 19.1849 134.133 18.7995 134.133 18.3828ZM143.477 20.6094C143.169 21.0885 142.747 21.4714 142.211 21.7578C141.68 22.0391 141.047 22.1797 140.312 22.1797C139.745 22.1797 139.224 22.0859 138.75 21.8984C138.276 21.7109 137.87 21.4505 137.531 21.1172C137.198 20.7786 136.938 20.3776 136.75 19.9141C136.562 19.4505 136.469 18.9349 136.469 18.3672C136.469 17.8151 136.555 17.3047 136.727 16.8359C136.898 16.362 137.143 15.9583 137.461 15.625C137.779 15.2865 138.167 15.0234 138.625 14.8359C139.089 14.6432 139.602 14.5469 140.164 14.5469C140.388 14.5469 140.617 14.5729 140.852 14.625C141.086 14.6771 141.307 14.7578 141.516 14.8672C141.724 14.9714 141.911 15.099 142.078 15.25C142.245 15.3958 142.37 15.5703 142.453 15.7734V14.7188H143.414V17.6328H142.453C142.453 17.3099 142.393 17.0156 142.273 16.75C142.159 16.4844 142 16.2552 141.797 16.0625C141.594 15.8698 141.352 15.7214 141.07 15.6172C140.789 15.5078 140.487 15.4531 140.164 15.4531C139.727 15.4531 139.344 15.5286 139.016 15.6797C138.693 15.8307 138.422 16.0365 138.203 16.2969C137.984 16.5573 137.818 16.8646 137.703 17.2188C137.594 17.5677 137.539 17.9505 137.539 18.3672C137.539 18.7839 137.602 19.1693 137.727 19.5234C137.857 19.8724 138.042 20.1745 138.281 20.4297C138.526 20.6849 138.818 20.888 139.156 21.0391C139.5 21.1901 139.885 21.2656 140.312 21.2656C140.854 21.2656 141.336 21.1589 141.758 20.9453C142.18 20.7318 142.503 20.4479 142.727 20.0938L143.477 20.6094ZM152.289 19.9844C152.289 20.4115 152.182 20.7656 151.969 21.0469C151.755 21.3281 151.479 21.5521 151.141 21.7188C150.807 21.8854 150.432 22.0026 150.016 22.0703C149.604 22.1432 149.201 22.1797 148.805 22.1797C148.143 22.1797 147.484 22.0833 146.828 21.8906C146.172 21.6979 145.604 21.4453 145.125 21.1328L145.602 20.2109C146.138 20.5495 146.667 20.8099 147.188 20.9922C147.708 21.1745 148.247 21.2656 148.805 21.2656C150.414 21.2656 151.219 20.849 151.219 20.0156C151.219 19.8125 151.151 19.6484 151.016 19.5234C150.885 19.3932 150.708 19.2891 150.484 19.2109C150.26 19.1276 150.003 19.0625 149.711 19.0156C149.424 18.9688 149.122 18.9245 148.805 18.8828C148.398 18.8255 147.995 18.7578 147.594 18.6797C147.193 18.6016 146.826 18.4844 146.492 18.3281C146.164 18.1719 145.898 17.9635 145.695 17.7031C145.497 17.4427 145.398 17.099 145.398 16.6719C145.398 16.3073 145.49 15.9922 145.672 15.7266C145.859 15.4609 146.107 15.2396 146.414 15.0625C146.727 14.8854 147.091 14.7552 147.508 14.6719C147.924 14.5885 148.357 14.5469 148.805 14.5469C149.445 14.5469 150.018 14.6224 150.523 14.7734C151.029 14.9193 151.484 15.1302 151.891 15.4062L151.461 16.2422C151.044 15.9505 150.622 15.7474 150.195 15.6328C149.768 15.513 149.305 15.4531 148.805 15.4531C148.581 15.4531 148.331 15.474 148.055 15.5156C147.784 15.5521 147.531 15.6198 147.297 15.7188C147.062 15.8125 146.865 15.9375 146.703 16.0938C146.547 16.2448 146.469 16.4375 146.469 16.6719C146.469 16.875 146.534 17.0391 146.664 17.1641C146.799 17.2839 146.979 17.3854 147.203 17.4688C147.427 17.5469 147.682 17.6094 147.969 17.6562C148.26 17.7031 148.565 17.7474 148.883 17.7891C149.279 17.8464 149.677 17.9141 150.078 17.9922C150.484 18.0703 150.852 18.1849 151.18 18.3359C151.513 18.487 151.781 18.6927 151.984 18.9531C152.188 19.2135 152.289 19.5573 152.289 19.9844Z" fill="white"/>
<line opacity="0.7" x1="111.5" y1="9.5" x2="111.5" y2="24.5" stroke="white" stroke-linecap="round"/>
<defs>
<clipPath id="clip0_1:15">
<rect width="32" height="32" fill="white"/>
</clipPath>
</defs>
</svg>
