<svg width="80" height="80" viewBox="0 0 80 80" fill="none" xmlns="http://www.w3.org/2000/svg">
<path opacity="0.7" d="M46.9807 33.1683L64.9249 54.5538C65.6619 55.4016 66.2227 56.3878 66.5745 57.4547C66.9263 58.5217 67.0621 59.648 66.9739 60.7679C66.8857 61.8879 66.5753 62.9791 66.0608 63.9778C65.5464 64.9765 64.8381 65.8627 63.9774 66.5847C63.1168 67.3068 62.1209 67.8501 61.0479 68.1831C59.975 68.5161 58.8465 68.632 57.7282 68.5242C56.61 68.4163 55.5244 68.0868 54.5349 67.5548C53.5454 67.0228 52.6718 66.2991 51.965 65.4259L34.0208 44.0438C33.6043 43.5487 33.2361 43.015 32.9211 42.45C28.3394 42.5853 23.751 40.5246 20.5872 36.7551C16.5943 31.9839 15.7078 25.4803 18.2625 20.3031C18.3871 20.0512 18.5726 19.8342 18.802 19.6719C19.0315 19.5095 19.2979 19.4069 19.5769 19.3734C19.856 19.3398 20.1391 19.3763 20.4005 19.4795C20.662 19.5828 20.8936 19.7495 21.0744 19.9647L26.969 26.9861C27.2572 27.3296 27.67 27.5446 28.1167 27.584C28.5633 27.6233 29.0074 27.4837 29.3512 27.1959L31.3171 25.5446C31.6607 25.2564 31.8757 24.8436 31.915 24.3969C31.9544 23.9503 31.8148 23.5062 31.5269 23.1624L25.629 16.1377C25.4485 15.922 25.3246 15.6646 25.2686 15.389C25.2126 15.1133 25.2262 14.8281 25.3082 14.559C25.3901 14.2899 25.5379 14.0455 25.7381 13.8479C25.9382 13.6503 26.1845 13.5057 26.4547 13.4273C31.9973 11.8098 38.2471 13.8096 42.2502 18.5774C45.4546 22.3977 46.6795 27.3482 45.6813 31.8757C46.1517 32.2682 46.5848 32.7013 46.9807 33.1683Z" fill="#A5AFFB" fill-opacity="0.4"/>
<path fill-rule="evenodd" clip-rule="evenodd" d="M42.1622 32.2953C41.769 31.826 41.3341 31.3934 40.8628 31.0027C41.861 26.4752 40.6395 21.5213 37.4316 17.7044C33.432 12.9333 27.1788 10.9368 21.6361 12.5509C21.3663 12.6298 21.1204 12.7746 20.9206 12.9724C20.7208 13.1702 20.5734 13.4146 20.4918 13.6837C20.4102 13.9527 20.3969 14.2378 20.4531 14.5133C20.5093 14.7887 20.6333 15.0458 20.8139 15.2613L26.705 22.286C26.9933 22.6294 27.1334 23.0732 27.0947 23.5198C27.056 23.9665 26.8416 24.3795 26.4986 24.6682L24.5326 26.3195C24.3623 26.4626 24.1654 26.5706 23.9533 26.6375C23.7412 26.7044 23.5179 26.7288 23.2964 26.7093C23.0748 26.6898 22.8592 26.6268 22.662 26.5239C22.4648 26.4211 22.2898 26.2803 22.1471 26.1097L16.2559 19.0884C16.0752 18.8724 15.8434 18.705 15.5815 18.6012C15.3197 18.4975 15.0361 18.4608 14.7565 18.4944C14.4769 18.528 14.2101 18.6309 13.9803 18.7937C13.7505 18.9565 13.565 19.1741 13.4406 19.4267C10.8858 24.6073 11.769 31.1109 15.772 35.8787C18.9359 39.6482 23.5209 41.7123 28.1059 41.5736C28.4172 42.1387 28.7827 42.6733 29.2023 43.1674L47.1431 64.5529C47.8543 65.413 48.7287 66.1238 49.7159 66.6445C50.703 67.1651 51.7835 67.4853 52.8949 67.5865C54.0064 67.6878 55.1269 67.5681 56.1919 67.2344C57.2569 66.9006 58.2453 66.3595 59.1002 65.6421C59.9551 64.9246 60.6596 64.0451 61.1731 63.0542C61.6866 62.0633 61.999 60.9806 62.0922 59.8685C62.1854 58.7563 62.0577 57.6367 61.7162 56.5742C61.3748 55.5116 60.8266 54.5271 60.103 53.6774L42.1622 32.2919V32.2953ZM18.364 33.7029C15.8769 30.7421 14.9261 26.9692 15.5893 23.5617L19.5551 28.2855C20.4203 29.3165 21.6596 29.9617 23.0004 30.0791C24.3413 30.1964 25.6738 29.7765 26.705 28.9115L28.6744 27.2602C29.7049 26.3945 30.3494 25.155 30.4662 23.8142C30.5829 22.4733 30.1624 21.1411 29.297 20.1103L25.3346 15.3865C28.803 15.3188 32.356 16.916 34.843 19.8768C37.5941 23.1591 38.4874 27.4565 37.32 31.1786C37.2088 31.5333 37.2174 31.9147 37.3447 32.2639C37.4719 32.6131 37.7105 32.9107 38.0238 33.1108C38.6054 33.4816 39.1269 33.9392 39.5702 34.4677L57.5144 55.8532C57.9428 56.364 58.2663 56.9541 58.4666 57.59C58.6669 58.2258 58.74 58.8949 58.6817 59.559C58.6234 60.2231 58.4349 60.8692 58.1269 61.4604C57.8189 62.0517 57.3975 62.5764 56.8867 63.0048C56.3759 63.4332 55.7857 63.7567 55.1499 63.957C54.514 64.1573 53.845 64.2304 53.1809 64.1721C52.5168 64.1138 51.8707 63.9253 51.2795 63.6173C50.6882 63.3093 50.1634 62.8879 49.7351 62.3771L31.7942 40.9916C31.3364 40.4461 30.9675 39.8317 30.7013 39.1711C30.5627 38.8267 30.3147 38.5374 29.9955 38.3479C29.6764 38.1583 29.3037 38.079 28.9349 38.1221C25.1011 38.5722 21.0846 36.9446 18.364 33.7029Z" fill="#7886F9"/>
</svg>
