<svg width="80" height="80" viewBox="0 0 80 80" fill="none" xmlns="http://www.w3.org/2000/svg">
<g opacity="0.7">
<mask id="mask0_4:199" style="mask-type:alpha" maskUnits="userSpaceOnUse" x="18" y="17" width="50" height="50">
<g opacity="0.8">
<path opacity="0.8" d="M20.4414 17.9898H66.1708C66.9049 17.9898 67.5 18.5849 67.5 19.319V65.0484C67.5 65.7825 66.9049 66.3775 66.1708 66.3775H20.4414C19.7073 66.3775 19.1122 65.7825 19.1122 65.0484V19.319C19.1122 18.5849 19.7073 17.9898 20.4414 17.9898Z" fill="white" stroke="#7886F9"/>
</g>
</mask>
<g mask="url(#mask0_4:199)">
<path opacity="0.8" d="M66.1708 17.4898H20.4414C19.4312 17.4898 18.6122 18.3087 18.6122 19.319V65.0484C18.6122 66.0586 19.4312 66.8775 20.4414 66.8775H66.1708C67.181 66.8775 68 66.0586 68 65.0484V19.319C68 18.3087 67.181 17.4898 66.1708 17.4898Z" fill="#A5AFFB" fill-opacity="0.4"/>
</g>
</g>
<mask id="mask1_4:199" style="mask-type:alpha" maskUnits="userSpaceOnUse" x="13" y="13" width="23" height="23">
<path d="M33.2041 13H15.2449C14.0051 13 13 14.0051 13 15.2449V33.2041C13 34.4439 14.0051 35.449 15.2449 35.449H33.2041C34.4439 35.449 35.449 34.4439 35.449 33.2041V15.2449C35.449 14.0051 34.4439 13 33.2041 13Z" fill="white"/>
</mask>
<g mask="url(#mask1_4:199)">
<path d="M33.2041 13H15.2449C14.0051 13 13 14.0051 13 15.2449V33.2041C13 34.4439 14.0051 35.449 15.2449 35.449H33.2041C34.4439 35.449 35.449 34.4439 35.449 33.2041V15.2449C35.449 14.0051 34.4439 13 33.2041 13Z" stroke="#ffffff" stroke-width="5" stroke-linecap="square" stroke-linejoin="round"/>
</g>
<mask id="mask2_4:199" style="mask-type:alpha" maskUnits="userSpaceOnUse" x="39" y="13" width="24" height="23">
<path d="M60.1429 13H42.1837C40.9438 13 39.9388 14.0051 39.9388 15.2449V33.2041C39.9388 34.4439 40.9438 35.449 42.1837 35.449H60.1429C61.3827 35.449 62.3878 34.4439 62.3878 33.2041V15.2449C62.3878 14.0051 61.3827 13 60.1429 13Z" fill="white"/>
</mask>
<g mask="url(#mask2_4:199)">
<path d="M60.1429 13H42.1837C40.9438 13 39.9388 14.0051 39.9388 15.2449V33.2041C39.9388 34.4439 40.9438 35.449 42.1837 35.449H60.1429C61.3827 35.449 62.3878 34.4439 62.3878 33.2041V15.2449C62.3878 14.0051 61.3827 13 60.1429 13Z" stroke="#ffffff" stroke-width="5" stroke-linecap="square" stroke-linejoin="round"/>
</g>
<mask id="mask3_4:199" style="mask-type:alpha" maskUnits="userSpaceOnUse" x="13" y="39" width="23" height="24">
<path d="M33.2041 39.9388H15.2449C14.0051 39.9388 13 40.9438 13 42.1837V60.1429C13 61.3827 14.0051 62.3878 15.2449 62.3878H33.2041C34.4439 62.3878 35.449 61.3827 35.449 60.1429V42.1837C35.449 40.9438 34.4439 39.9388 33.2041 39.9388Z" fill="white"/>
</mask>
<g mask="url(#mask3_4:199)">
<path d="M33.2041 39.9388H15.2449C14.0051 39.9388 13 40.9438 13 42.1837V60.1429C13 61.3827 14.0051 62.3878 15.2449 62.3878H33.2041C34.4439 62.3878 35.449 61.3827 35.449 60.1429V42.1837C35.449 40.9438 34.4439 39.9388 33.2041 39.9388Z" stroke="#ffffff" stroke-width="5" stroke-linecap="square" stroke-linejoin="round"/>
</g>
<mask id="mask4_4:199" style="mask-type:alpha" maskUnits="userSpaceOnUse" x="39" y="39" width="24" height="24">
<path d="M60.1429 39.9388H42.1837C40.9438 39.9388 39.9388 40.9438 39.9388 42.1837V60.1429C39.9388 61.3827 40.9438 62.3878 42.1837 62.3878H60.1429C61.3827 62.3878 62.3878 61.3827 62.3878 60.1429V42.1837C62.3878 40.9438 61.3827 39.9388 60.1429 39.9388Z" fill="white"/>
</mask>
<g mask="url(#mask4_4:199)">
<path d="M60.1429 39.9388H42.1837C40.9438 39.9388 39.9388 40.9438 39.9388 42.1837V60.1429C39.9388 61.3827 40.9438 62.3878 42.1837 62.3878H60.1429C61.3827 62.3878 62.3878 61.3827 62.3878 60.1429V42.1837C62.3878 40.9438 61.3827 39.9388 60.1429 39.9388Z" fill="#ffffff" stroke="#ffffff" stroke-width="2" stroke-linecap="square" stroke-linejoin="round"/>
</g>
</svg>
