<svg width="80" height="80" viewBox="0 0 80 80" fill="none" xmlns="http://www.w3.org/2000/svg">
<path opacity="0.7" fill-rule="evenodd" clip-rule="evenodd" d="M30.1419 51.0929C28.7077 51.8555 27.0966 52.2234 25.4736 52.1588C23.8505 52.0942 22.2738 51.5995 20.9048 50.7253C19.5357 49.8511 18.4235 48.6289 17.6821 47.1837C16.9406 45.7384 16.5965 44.1221 16.6849 42.5002C16.7733 40.8783 17.2911 39.309 18.1853 37.9529C19.0795 36.5969 20.3179 35.5028 21.7739 34.7826C23.2298 34.0625 24.851 33.7421 26.4715 33.8543C28.0919 33.9666 29.6534 34.5073 30.9962 35.4213L49.6708 24.3845C49.7385 22.2036 50.5819 20.1183 52.0494 18.5036C53.5169 16.8888 55.5123 15.8505 57.6769 15.5752C59.8414 15.3 62.0332 15.8059 63.8581 17.002C65.6831 18.1981 67.0215 20.0059 67.6328 22.1005C68.2442 24.1951 68.0883 26.4391 67.1933 28.429C66.2982 30.419 64.7227 32.0244 62.7499 32.9567C60.7771 33.889 58.5364 34.087 56.4307 33.5152C54.325 32.9433 52.4923 31.6391 51.2622 29.8369L34.4209 39.7884C34.8562 40.948 35.0514 42.1839 34.9947 43.4212C34.938 44.6584 34.6305 45.8713 34.0909 46.9862L51.1705 56.2996C52.3693 54.4749 54.18 53.1379 56.2768 52.5294C58.3736 51.9208 60.6188 52.0807 62.6082 52.9801C64.5977 53.8796 66.2008 55.4596 67.129 57.4358C68.0572 59.4119 68.2496 61.6546 67.6715 63.76C67.0934 65.8654 65.7829 67.6953 63.9757 68.9205C62.1685 70.1456 59.9834 70.6855 57.8136 70.443C55.6438 70.2005 53.6318 69.1914 52.1397 67.5975C50.6476 66.0036 49.7734 63.9295 49.6745 61.7484L30.1419 51.0966V51.0929Z" fill="#A5AFFB" fill-opacity="0.4"/>
<path fill-rule="evenodd" clip-rule="evenodd" d="M22.1668 46.6672C24.598 46.6672 26.9296 45.7014 28.6487 43.9823C30.3678 42.2632 31.3336 39.9316 31.3336 37.5004C31.3336 35.0692 30.3678 32.7376 28.6487 31.0185C26.9296 29.2994 24.598 28.3336 22.1668 28.3336C19.7356 28.3336 17.404 29.2994 15.6849 31.0185C13.9658 32.7376 13 35.0692 13 37.5004C13 39.9316 13.9658 42.2632 15.6849 43.9823C17.404 45.7014 19.7356 46.6672 22.1668 46.6672ZM22.1668 32.0003C23.6255 32.0003 25.0245 32.5798 26.0559 33.6112C27.0874 34.6427 27.6669 36.0417 27.6669 37.5004C27.6669 38.9591 27.0874 40.3581 26.0559 41.3895C25.0245 42.421 23.6255 43.0005 22.1668 43.0005C20.7081 43.0005 19.3091 42.421 18.2777 41.3895C17.2462 40.3581 16.6667 38.9591 16.6667 37.5004C16.6667 36.0417 17.2462 34.6427 18.2777 33.6112C19.3091 32.5798 20.7081 32.0003 22.1668 32.0003Z" fill="white"/>
<path fill-rule="evenodd" clip-rule="evenodd" d="M55.1673 28.3336C57.5984 28.3336 59.9301 27.3678 61.6492 25.6487C63.3683 23.9296 64.3341 21.598 64.3341 19.1668C64.3341 16.7356 63.3683 14.404 61.6492 12.6849C59.9301 10.9658 57.5984 10 55.1673 10C52.7361 10 50.4045 10.9658 48.6854 12.6849C46.9662 14.404 46.0005 16.7356 46.0005 19.1668C46.0005 21.598 46.9662 23.9296 48.6854 25.6487C50.4045 27.3678 52.7361 28.3336 55.1673 28.3336ZM55.1673 13.6667C56.626 13.6667 58.0249 14.2462 59.0564 15.2777C60.0879 16.3091 60.6673 17.7081 60.6673 19.1668C60.6673 20.6255 60.0879 22.0245 59.0564 23.0559C58.0249 24.0874 56.626 24.6669 55.1673 24.6669C53.7085 24.6669 52.3096 24.0874 51.2781 23.0559C50.2466 22.0245 49.6672 20.6255 49.6672 19.1668C49.6672 17.7081 50.2466 16.3091 51.2781 15.2777C52.3096 14.2462 53.7085 13.6667 55.1673 13.6667Z" fill="white"/>
<path fill-rule="evenodd" clip-rule="evenodd" d="M55.1673 65.0008C57.5984 65.0008 59.9301 64.035 61.6492 62.3159C63.3683 60.5968 64.3341 58.2652 64.3341 55.834C64.3341 53.4028 63.3683 51.0712 61.6492 49.3521C59.9301 47.633 57.5984 46.6672 55.1673 46.6672C52.7361 46.6672 50.4045 47.633 48.6854 49.3521C46.9662 51.0712 46.0005 53.4028 46.0005 55.834C46.0005 58.2652 46.9662 60.5968 48.6854 62.3159C50.4045 64.035 52.7361 65.0008 55.1673 65.0008ZM55.1673 50.3339C56.626 50.3339 58.0249 50.9134 59.0564 51.9448C60.0879 52.9763 60.6673 54.3753 60.6673 55.834C60.6673 57.2927 60.0879 58.6917 59.0564 59.7231C58.0249 60.7546 56.626 61.3341 55.1673 61.3341C53.7085 61.3341 52.3096 60.7546 51.2781 59.7231C50.2466 58.6917 49.6672 57.2927 49.6672 55.834C49.6672 54.3753 50.2466 52.9763 51.2781 51.9448C52.3096 50.9134 53.7085 50.3339 55.1673 50.3339Z" fill="white"/>
<path d="M28.5982 34.4937L26.7355 31.3403L46.9025 19.4235L48.7652 22.5769L28.5982 34.4937Z" fill="white"/>
<path d="M47.8338 55.3866L49.5902 52.1673L29.4232 41.1671L27.6669 44.3865L47.8338 55.3866Z" fill="white"/>
</svg>
