<svg width="357" height="358" viewBox="0 0 357 358" fill="none" xmlns="http://www.w3.org/2000/svg">
<mask id="mask0" mask-type="alpha" maskUnits="userSpaceOnUse" x="0" y="0" width="357" height="358">
<circle cx="178.626" cy="178.966" r="126.03" transform="rotate(-45 178.626 178.966)" fill="#C4C4C4"/>
</mask>
<g mask="url(#mask0)">
<rect width="8.06595" height="252.061" transform="matrix(-0.707107 0.707107 0.707107 0.707107 6.09572 173.265)" fill="url(#paint0_linear)"/>
<rect width="8.06595" height="252.061" transform="matrix(-0.707107 0.707107 0.707107 0.707107 98.0646 81.2965)" fill="url(#paint1_linear)"/>
<rect width="8.06595" height="252.061" transform="matrix(-0.707107 0.707107 0.707107 0.707107 52.0801 127.279)" fill="url(#paint2_linear)"/>
<rect width="8.06595" height="252.061" transform="matrix(-0.707107 0.707107 0.707107 0.707107 144.049 35.3099)" fill="url(#paint3_linear)"/>
<rect width="8.06595" height="252.061" transform="matrix(-0.707107 0.707107 0.707107 0.707107 29.088 150.271)" fill="url(#paint4_linear)"/>
<rect width="8.06595" height="252.061" transform="matrix(-0.707107 0.707107 0.707107 0.707107 121.057 58.3026)" fill="url(#paint5_linear)"/>
<rect width="8.06595" height="252.061" transform="matrix(-0.707107 0.707107 0.707107 0.707107 75.0723 104.289)" fill="url(#paint6_linear)"/>
<rect width="8.06595" height="252.061" transform="matrix(-0.707107 0.707107 0.707107 0.707107 167.041 12.3191)" fill="url(#paint7_linear)"/>
<rect width="8.06595" height="252.061" transform="matrix(0.707107 -0.707107 -0.707107 -0.707107 351.157 184.672)" fill="url(#paint8_linear)"/>
<rect width="8.06595" height="252.061" transform="matrix(0.707107 -0.707107 -0.707107 -0.707107 259.188 276.639)" fill="url(#paint9_linear)"/>
<rect width="8.06595" height="252.061" transform="matrix(0.707107 -0.707107 -0.707107 -0.707107 305.172 230.656)" fill="url(#paint10_linear)"/>
<rect width="8.06595" height="252.061" transform="matrix(0.707107 -0.707107 -0.707107 -0.707107 213.204 322.626)" fill="url(#paint11_linear)"/>
<rect width="8.06595" height="252.061" transform="matrix(0.707107 -0.707107 -0.707107 -0.707107 328.165 207.663)" fill="url(#paint12_linear)"/>
<rect width="8.06595" height="252.061" transform="matrix(0.707107 -0.707107 -0.707107 -0.707107 236.196 299.632)" fill="url(#paint13_linear)"/>
<rect width="8.06595" height="252.061" transform="matrix(0.707107 -0.707107 -0.707107 -0.707107 282.18 253.648)" fill="url(#paint14_linear)"/>
<rect width="8.06595" height="252.061" transform="matrix(0.707107 -0.707107 -0.707107 -0.707107 190.212 345.615)" fill="url(#paint15_linear)"/>
</g>
<defs>
<linearGradient id="paint0_linear" x1="4.03298" y1="0" x2="4.03298" y2="252.061" gradientUnits="userSpaceOnUse">
<stop stop-color="#92EBFF"/>
<stop offset="0.489583" stop-color="#8B97FF"/>
<stop offset="1" stop-color="#67FF9B"/>
</linearGradient>
<linearGradient id="paint1_linear" x1="4.03298" y1="0" x2="4.03298" y2="252.061" gradientUnits="userSpaceOnUse">
<stop stop-color="#92EBFF"/>
<stop offset="0.489583" stop-color="#8B97FF"/>
<stop offset="1" stop-color="#67FF9B"/>
</linearGradient>
<linearGradient id="paint2_linear" x1="4.03298" y1="0" x2="4.03298" y2="252.061" gradientUnits="userSpaceOnUse">
<stop stop-color="#92EBFF"/>
<stop offset="0.489583" stop-color="#8B97FF"/>
<stop offset="1" stop-color="#67FF9B"/>
</linearGradient>
<linearGradient id="paint3_linear" x1="4.03298" y1="0" x2="4.03298" y2="252.061" gradientUnits="userSpaceOnUse">
<stop stop-color="#92EBFF"/>
<stop offset="0.489583" stop-color="#8B97FF"/>
<stop offset="1" stop-color="#67FF9B"/>
</linearGradient>
<linearGradient id="paint4_linear" x1="4.03298" y1="0" x2="4.03298" y2="252.061" gradientUnits="userSpaceOnUse">
<stop stop-color="#92EBFF"/>
<stop offset="0.489583" stop-color="#8B97FF"/>
<stop offset="1" stop-color="#67FF9B"/>
</linearGradient>
<linearGradient id="paint5_linear" x1="4.03298" y1="0" x2="4.03298" y2="252.061" gradientUnits="userSpaceOnUse">
<stop stop-color="#92EBFF"/>
<stop offset="0.489583" stop-color="#8B97FF"/>
<stop offset="1" stop-color="#67FF9B"/>
</linearGradient>
<linearGradient id="paint6_linear" x1="4.03298" y1="0" x2="4.03298" y2="252.061" gradientUnits="userSpaceOnUse">
<stop stop-color="#92EBFF"/>
<stop offset="0.489583" stop-color="#8B97FF"/>
<stop offset="1" stop-color="#67FF9B"/>
</linearGradient>
<linearGradient id="paint7_linear" x1="4.03298" y1="0" x2="4.03298" y2="252.061" gradientUnits="userSpaceOnUse">
<stop stop-color="#92EBFF"/>
<stop offset="0.489583" stop-color="#8B97FF"/>
<stop offset="1" stop-color="#67FF9B"/>
</linearGradient>
<linearGradient id="paint8_linear" x1="4.03298" y1="0" x2="4.03298" y2="252.061" gradientUnits="userSpaceOnUse">
<stop stop-color="#92EBFF"/>
<stop offset="0.489583" stop-color="#8B97FF"/>
<stop offset="1" stop-color="#67FF9B"/>
</linearGradient>
<linearGradient id="paint9_linear" x1="4.03298" y1="0" x2="4.03298" y2="252.061" gradientUnits="userSpaceOnUse">
<stop stop-color="#92EBFF"/>
<stop offset="0.489583" stop-color="#8B97FF"/>
<stop offset="1" stop-color="#67FF9B"/>
</linearGradient>
<linearGradient id="paint10_linear" x1="4.03298" y1="0" x2="4.03298" y2="252.061" gradientUnits="userSpaceOnUse">
<stop stop-color="#92EBFF"/>
<stop offset="0.489583" stop-color="#8B97FF"/>
<stop offset="1" stop-color="#67FF9B"/>
</linearGradient>
<linearGradient id="paint11_linear" x1="4.03298" y1="0" x2="4.03298" y2="252.061" gradientUnits="userSpaceOnUse">
<stop stop-color="#92EBFF"/>
<stop offset="0.489583" stop-color="#8B97FF"/>
<stop offset="1" stop-color="#67FF9B"/>
</linearGradient>
<linearGradient id="paint12_linear" x1="4.03298" y1="0" x2="4.03298" y2="252.061" gradientUnits="userSpaceOnUse">
<stop stop-color="#92EBFF"/>
<stop offset="0.489583" stop-color="#8B97FF"/>
<stop offset="1" stop-color="#67FF9B"/>
</linearGradient>
<linearGradient id="paint13_linear" x1="4.03298" y1="0" x2="4.03298" y2="252.061" gradientUnits="userSpaceOnUse">
<stop stop-color="#92EBFF"/>
<stop offset="0.489583" stop-color="#8B97FF"/>
<stop offset="1" stop-color="#67FF9B"/>
</linearGradient>
<linearGradient id="paint14_linear" x1="4.03298" y1="0" x2="4.03298" y2="252.061" gradientUnits="userSpaceOnUse">
<stop stop-color="#92EBFF"/>
<stop offset="0.489583" stop-color="#8B97FF"/>
<stop offset="1" stop-color="#67FF9B"/>
</linearGradient>
<linearGradient id="paint15_linear" x1="4.03298" y1="0" x2="4.03298" y2="252.061" gradientUnits="userSpaceOnUse">
<stop stop-color="#92EBFF"/>
<stop offset="0.489583" stop-color="#8B97FF"/>
<stop offset="1" stop-color="#67FF9B"/>
</linearGradient>
</defs>
</svg>
