<svg width="24" height="24" viewBox="0 0 24 24" fill="none" xmlns="http://www.w3.org/2000/svg">
<rect width="24" height="24" rx="2" fill="#CBCBFF"/>
<path d="M18.2222 11.2222C18.0159 11.2222 17.8181 11.3042 17.6722 11.45C17.5264 11.5959 17.4444 11.7937 17.4444 12V16.6667C17.4444 16.8729 17.3625 17.0708 17.2166 17.2166C17.0708 17.3625 16.8729 17.4444 16.6667 17.4444H7.33333C7.12705 17.4444 6.92922 17.3625 6.78336 17.2166C6.6375 17.0708 6.55556 16.8729 6.55556 16.6667V7.33333C6.55556 7.12705 6.6375 6.92922 6.78336 6.78336C6.92922 6.6375 7.12705 6.55556 7.33333 6.55556H12C12.2063 6.55556 12.4041 6.47361 12.55 6.32775C12.6958 6.18189 12.7778 5.98406 12.7778 5.77778C12.7778 5.5715 12.6958 5.37367 12.55 5.22781C12.4041 5.08194 12.2063 5 12 5H7.33333C6.71449 5 6.121 5.24583 5.68342 5.68342C5.24583 6.121 5 6.71449 5 7.33333V16.6667C5 17.2855 5.24583 17.879 5.68342 18.3166C6.121 18.7542 6.71449 19 7.33333 19H16.6667C17.2855 19 17.879 18.7542 18.3166 18.3166C18.7542 17.879 19 17.2855 19 16.6667V12C19 11.7937 18.9181 11.5959 18.7722 11.45C18.6263 11.3042 18.4285 11.2222 18.2222 11.2222Z" fill="#5050FD"/>
<path d="M15.1111 6.55556H16.3399L11.4477 11.44C11.3748 11.5123 11.317 11.5983 11.2775 11.6931C11.238 11.7879 11.2177 11.8895 11.2177 11.9922C11.2177 12.0949 11.238 12.1966 11.2775 12.2913C11.317 12.3861 11.3748 12.4721 11.4477 12.5444C11.52 12.6173 11.606 12.6752 11.7008 12.7147C11.7956 12.7542 11.8973 12.7745 11.9999 12.7745C12.1026 12.7745 12.2043 12.7542 12.2991 12.7147C12.3938 12.6752 12.4799 12.6173 12.5522 12.5444L17.4444 7.66V8.88889C17.4444 9.09517 17.5263 9.293 17.6722 9.43886C17.8181 9.58472 18.0159 9.66667 18.2222 9.66667C18.4284 9.66667 18.6263 9.58472 18.7721 9.43886C18.918 9.293 18.9999 9.09517 18.9999 8.88889V5.77778C18.9999 5.5715 18.918 5.37367 18.7721 5.22781C18.6263 5.08194 18.4284 5 18.2222 5H15.1111C14.9048 5 14.7069 5.08194 14.5611 5.22781C14.4152 5.37367 14.3333 5.5715 14.3333 5.77778C14.3333 5.98406 14.4152 6.18189 14.5611 6.32775C14.7069 6.47361 14.9048 6.55556 15.1111 6.55556Z" fill="#5050FD"/>
</svg>
