<svg width="24" height="24" viewBox="0 0 24 24" fill="none" xmlns="http://www.w3.org/2000/svg">
<path d="M12 0C5.33333 0 0 5.33333 0 12C0 18.6667 5.33333 24 12 24C18.6667 24 24 18.6667 24 12C24 5.33333 18.6667 0 12 0ZM12 9.33333C13.4667 9.33333 14.6667 10.5333 14.6667 12C14.6667 13.4667 13.4667 14.6667 12 14.6667C10.5333 14.6667 9.33333 13.4667 9.33333 12C9.33333 10.5333 10.5333 9.33333 12 9.33333ZM15.7333 6.66667C15.7333 5.73333 16.5333 5.06667 17.3333 5.06667C18.1333 5.06667 18.9333 5.86667 18.9333 6.66667C18.9333 7.46667 18.2667 8.26667 17.3333 8.26667C16.4 8.26667 15.7333 7.6 15.7333 6.66667ZM12 21.3333C6.8 21.3333 2.66667 17.2 2.66667 12H6.66667C6.66667 14.9333 9.06667 17.3333 12 17.3333C14.9333 17.3333 17.3333 14.9333 17.3333 12H21.3333C21.3333 17.2 17.2 21.3333 12 21.3333Z" fill="#8F9097"/>
</svg>
