<svg width="43" height="43" viewBox="0 0 43 43" fill="none" xmlns="http://www.w3.org/2000/svg">
<path d="M10.75 12.5417H19.7083C20.1835 12.5417 20.6392 12.7305 20.9752 13.0665C21.3112 13.4025 21.5 13.8582 21.5 14.3334C21.5 14.8086 21.3112 15.2643 20.9752 15.6003C20.6392 15.9363 20.1835 16.1251 19.7083 16.1251H10.75C10.2748 16.1251 9.81908 15.9363 9.48308 15.6003C9.14708 15.2643 8.95831 14.8086 8.95831 14.3334C8.95831 13.8582 9.14708 13.4025 9.48308 13.0665C9.81908 12.7305 10.2748 12.5417 10.75 12.5417V12.5417ZM23.2916 26.8751H32.25C32.7252 26.8751 33.1809 27.0638 33.5169 27.3998C33.8529 27.7359 34.0416 28.1916 34.0416 28.6667C34.0416 29.1419 33.8529 29.5976 33.5169 29.9336C33.1809 30.2697 32.7252 30.4584 32.25 30.4584H23.2916C22.8165 30.4584 22.3608 30.2697 22.0247 29.9336C21.6887 29.5976 21.5 29.1419 21.5 28.6667C21.5 28.1916 21.6887 27.7359 22.0247 27.3998C22.3608 27.0638 22.8165 26.8751 23.2916 26.8751V26.8751ZM10.75 19.7084H32.25C32.7252 19.7084 33.1809 19.8972 33.5169 20.2332C33.8529 20.5692 34.0416 21.0249 34.0416 21.5001C34.0416 21.9753 33.8529 22.431 33.5169 22.767C33.1809 23.103 32.7252 23.2917 32.25 23.2917H10.75C10.2748 23.2917 9.81908 23.103 9.48308 22.767C9.14708 22.431 8.95831 21.9753 8.95831 21.5001C8.95831 21.0249 9.14708 20.5692 9.48308 20.2332C9.81908 19.8972 10.2748 19.7084 10.75 19.7084Z" fill="white"/>
</svg>
