<svg width="39" height="38" viewBox="0 0 39 38" fill="none" xmlns="http://www.w3.org/2000/svg">
<rect width="39" height="38" fill="#E5E5E5"/>
<g clip-path="url(#clip0_0:1)">
<rect width="1440" height="2695" transform="translate(-196 -2606)" fill="#090E1B"/>
<g opacity="0.3" filter="url(#filter0_d_0:1)">
<path fill-rule="evenodd" clip-rule="evenodd" d="M21.2766 4.02611C20.9509 3.83925 20.9526 3.53582 21.2766 3.35068L26.8703 0.139822C27.196 -0.0470355 27.7249 -0.0461784 28.0489 0.139822L33.6417 3.35068C33.9674 3.53754 33.9657 3.84096 33.6417 4.02611L28.0489 7.23782C27.7231 7.42382 27.1943 7.42296 26.8703 7.23782L21.2766 4.02611ZM28.0883 9.33782C28.0883 8.96411 28.354 8.50811 28.6771 8.32211L34.2691 5.11296C34.5931 4.92611 34.8571 5.08382 34.8571 5.46182V21.079C34.8571 21.4587 34.588 21.9207 34.2588 22.1101L20.6586 29.9144C20.3286 30.1047 20.0603 29.9538 20.0603 29.5818V23.1592C20.0603 22.7864 20.3286 22.3295 20.65 22.1452L27.4977 18.2152C27.8234 18.0267 28.0874 17.569 28.0874 17.1987L28.0883 9.33782ZM10.7663 24.9704C10.7663 25.3441 10.5006 25.4958 10.1774 25.3098L4.58886 22.1024C4.26229 21.9155 4 21.4544 4 21.0772V5.46011C4 5.08039 4.27 4.92782 4.59829 5.11725L18.1986 12.9215C18.5286 13.111 18.7969 13.5695 18.7969 13.9415V20.3632C18.7969 20.737 18.5294 20.8861 18.2054 20.701L11.3569 16.771C11.0311 16.5824 10.7663 16.7384 10.7663 17.1087V24.9704ZM25.6017 7.95439C25.9326 8.14382 25.9351 8.45068 25.6111 8.63582L20.0166 11.8475C19.6909 12.0344 19.1577 12.031 18.8286 11.8424L5.22571 4.03382C4.89486 3.84525 4.89229 3.53839 5.21629 3.35239L10.8117 0.140679C11.1374 -0.0461783 11.6706 -0.0427498 11.9997 0.145822L25.6017 7.95439ZM26.83 16.4795C26.83 16.8524 26.5643 17.3084 26.2411 17.4927L20.6491 20.7027C20.3251 20.8895 20.0603 20.7361 20.0603 20.3641V13.9441C20.0603 13.5704 20.326 13.1144 20.6491 12.9292L26.242 9.72011C26.566 9.53325 26.8309 9.68668 26.8309 10.0578L26.83 16.4795ZM18.2071 22.1452C18.5329 22.3312 18.7969 22.7881 18.7969 23.1592V29.5818C18.7969 29.9555 18.5311 30.1064 18.208 29.9204L12.6177 26.713C12.2937 26.5261 12.0297 26.0701 12.0297 25.699V19.2755C12.0297 18.9018 12.2954 18.751 12.6177 18.937L18.2071 22.1452Z" fill="white" fill-opacity="0.48" shape-rendering="crispEdges"/>
</g>
</g>
<defs>
<filter id="filter0_d_0:1" x="0" y="0" width="38.8571" height="38" filterUnits="userSpaceOnUse" color-interpolation-filters="sRGB">
<feFlood flood-opacity="0" result="BackgroundImageFix"/>
<feColorMatrix in="SourceAlpha" type="matrix" values="0 0 0 0 0 0 0 0 0 0 0 0 0 0 0 0 0 0 127 0" result="hardAlpha"/>
<feOffset dy="4"/>
<feGaussianBlur stdDeviation="2"/>
<feComposite in2="hardAlpha" operator="out"/>
<feColorMatrix type="matrix" values="0 0 0 0 0 0 0 0 0 0 0 0 0 0 0 0 0 0 0.25 0"/>
<feBlend mode="normal" in2="BackgroundImageFix" result="effect1_dropShadow_0:1"/>
<feBlend mode="normal" in="SourceGraphic" in2="effect1_dropShadow_0:1" result="shape"/>
</filter>
<clipPath id="clip0_0:1">
<rect width="1440" height="2695" fill="white" transform="translate(-196 -2606)"/>
</clipPath>
</defs>
</svg>
