<svg width="59" height="70" viewBox="0 0 59 70" fill="none" xmlns="http://www.w3.org/2000/svg">
<g clip-path="url(#clip0_37_1242)">
<path d="M14.7271 63.7668H11.4205V67.2368H10.3815V59.3791H15.2629V60.2318H11.4205V62.9194H14.7271V63.7668ZM17.4384 67.2368H16.4372V61.3976H17.4384V67.2368ZM16.356 59.8486C16.356 59.6867 16.4047 59.55 16.5022 59.4385C16.6031 59.3268 16.7511 59.2711 16.9459 59.2711C17.1407 59.2711 17.2886 59.3268 17.3897 59.4385C17.4907 59.55 17.5412 59.6867 17.5412 59.8486C17.5412 60.0105 17.4907 60.1454 17.3897 60.2534C17.2886 60.3614 17.1407 60.4153 16.9459 60.4153C16.7511 60.4153 16.6031 60.3614 16.5022 60.2534C16.4047 60.1454 16.356 60.0105 16.356 59.8486ZM20.1334 67.2368H19.1322V58.9474H20.1334V67.2368ZM21.5026 64.2685C21.5026 63.3583 21.7136 62.6353 22.1357 62.099C22.5579 61.5595 23.117 61.2896 23.8134 61.2896C24.5278 61.2896 25.0852 61.5415 25.4856 62.0451L25.5343 61.3976H26.4489V67.0966C26.4489 67.8521 26.2233 68.4476 25.7724 68.8827C25.3251 69.3182 24.7225 69.5358 23.9649 69.5358C23.5428 69.5358 23.1297 69.446 22.7256 69.2659C22.3215 69.0861 22.0131 68.8397 21.8002 68.5268L22.3197 67.9276C22.7491 68.4565 23.274 68.7209 23.8945 68.7209C24.3817 68.7209 24.7603 68.5843 25.031 68.3108C25.3053 68.0375 25.4424 67.6525 25.4424 67.1558V66.654C25.0418 67.1146 24.4953 67.3448 23.8026 67.3448C23.117 67.3448 22.5615 67.0694 22.1357 66.5191C21.7136 65.9685 21.5026 65.2183 21.5026 64.2685ZM22.5092 64.382C22.5092 65.0403 22.6444 65.5584 22.915 65.9363C23.1856 66.3105 23.5645 66.4975 24.0515 66.4975C24.6828 66.4975 25.1464 66.2115 25.4424 65.6393V62.9733C25.1356 62.4156 24.6756 62.137 24.0623 62.137C23.5754 62.137 23.1946 62.3258 22.9204 62.7034C22.6462 63.0813 22.5092 63.6408 22.5092 64.382ZM30.7945 62.2933C30.643 62.2682 30.4788 62.2555 30.3019 62.2555C29.6455 62.2555 29.1999 62.5344 28.9653 63.0921V67.2368H27.9641V61.3976H28.9382L28.9544 62.072C29.2828 61.5505 29.7482 61.2896 30.3507 61.2896C30.5455 61.2896 30.6936 61.3147 30.7945 61.3651V62.2933ZM35.1185 67.2368C35.0608 67.1217 35.0139 66.9165 34.9777 66.6216C34.5124 67.1037 33.9566 67.3448 33.311 67.3448C32.7338 67.3448 32.2593 67.1829 31.8878 66.859C31.5197 66.5315 31.3357 66.118 31.3357 65.6178C31.3357 65.0097 31.5666 64.5384 32.0284 64.2038C32.4939 63.8655 33.1469 63.6965 33.9873 63.6965H34.9615V63.2378C34.9615 62.8888 34.8569 62.6118 34.6477 62.4066C34.4383 62.198 34.1298 62.0937 33.7223 62.0937C33.3651 62.0937 33.0656 62.1837 32.8238 62.3635C32.5821 62.5434 32.4613 62.761 32.4613 63.0166H31.4548C31.4548 62.7251 31.5576 62.4444 31.7631 62.1747C31.9725 61.9012 32.254 61.6854 32.6075 61.527C32.9647 61.3688 33.3561 61.2896 33.7818 61.2896C34.4565 61.2896 34.9851 61.4586 35.3674 61.7969C35.7498 62.1314 35.9484 62.5938 35.9627 63.1837V65.8714C35.9627 66.4074 36.0313 66.8339 36.1684 67.1505V67.2368H35.1185ZM33.457 66.4758C33.771 66.4758 34.0686 66.395 34.3501 66.2331C34.6313 66.071 34.8352 65.8605 34.9615 65.6015V64.4034H34.1769C32.9501 64.4034 32.3369 64.7615 32.3369 65.4774C32.3369 65.7905 32.4415 66.0351 32.6507 66.2115C32.8599 66.3876 33.1289 66.4758 33.457 66.4758ZM38.4737 61.3976L38.5008 62.0451C38.9302 61.5415 39.5091 61.2896 40.238 61.2896C41.0568 61.2896 41.6144 61.6025 41.9102 62.2286C42.1051 61.9479 42.3575 61.7213 42.6678 61.5486C42.9816 61.3759 43.3515 61.2896 43.7773 61.2896C45.0615 61.2896 45.7145 61.9677 45.7362 63.3242V67.2368H44.7351V63.3836C44.7351 62.9661 44.6395 62.6551 44.4483 62.4499C44.2571 62.2413 43.9359 62.137 43.485 62.137C43.1134 62.137 42.805 62.2484 42.5595 62.4715C42.3143 62.691 42.1718 62.9878 42.1321 63.362V67.2368H41.1254V63.4105C41.1254 62.5613 40.7089 62.137 39.8753 62.137C39.2189 62.137 38.7695 62.4156 38.5278 62.9733V67.2368H37.5266V61.3976H38.4737Z" fill="black"/>
<path d="M50.1053 64.9342H48.7199C48.4649 64.9342 48.2581 65.1404 48.2581 65.3947V66.7763C48.2581 67.0307 48.4649 67.2368 48.7199 67.2368H50.1053C50.3604 67.2368 50.5671 67.0307 50.5671 66.7763V65.3947C50.5671 65.1404 50.3604 64.9342 50.1053 64.9342Z" fill="#5E5EF7"/>
<path fill-rule="evenodd" clip-rule="evenodd" d="M22.9975 48.2848L10.6572 35.9786L10.6577 35.9779L10.0664 35.3882L10.0586 35.3806L10.0509 35.3728L5.43103 30.7657L10.0586 26.1508C12.6144 23.6022 16.7581 23.6022 19.3139 26.1508C19.5169 26.3534 19.7038 26.5657 19.8746 26.7865L19.9124 26.7488L27.7974 34.612L30.8829 31.5348L30.1117 30.7657L26.2552 26.9201L22.399 23.0742L26.2552 19.2286C28.385 17.1046 31.8382 17.1046 33.968 19.2286L38.5957 23.8435L44.7658 17.6903C47.3216 15.1416 51.4654 15.1416 54.021 17.6903L58.6487 22.3051L54.0277 26.9134L54.021 26.9201L54.0187 26.9224L32.4283 48.4531L32.4256 48.4559C29.8697 51.0047 25.726 51.0047 23.1702 48.4559C23.1127 48.3986 23.0563 48.3401 23.0012 48.2811L22.9975 48.2848Z" fill="url(#paint0_linear_37_1242)"/>
<path fill-rule="evenodd" clip-rule="evenodd" d="M13.8829 39.3191L4.62762 30.0894L13.8829 20.8596L18.5105 25.4745L26.2231 17.7831C28.7789 15.2343 32.9227 15.2343 35.4785 17.7831L40.106 22.3979L35.482 27.0092C35.4808 27.0103 35.4797 27.0117 35.4785 27.0129L23.1415 39.3156C23.1403 39.3168 23.1392 39.3179 23.138 39.3191C20.5823 41.8678 16.4386 41.8678 13.8829 39.3191Z" fill="url(#paint1_linear_37_1242)"/>
<path fill-rule="evenodd" clip-rule="evenodd" d="M13.8829 20.8596C11.3271 18.3109 7.18341 18.3109 4.62765 20.8596C2.07187 23.4083 2.07187 27.5406 4.62765 30.0894C7.18341 32.6379 11.3271 32.6379 13.8829 30.0894L18.5105 25.4745L13.8863 20.863C13.8852 20.8619 13.884 20.8607 13.8829 20.8596Z" fill="url(#paint2_linear_37_1242)"/>
<path d="M20.3182 14.1924H24.5537C25.1913 14.1924 25.7082 13.677 25.7082 13.0411V8.81734C25.7082 8.18148 25.1913 7.66602 24.5537 7.66602L20.3182 7.66602C19.6806 7.66602 19.1637 8.18148 19.1637 8.81734V13.0411C19.1637 13.677 19.6806 14.1924 20.3182 14.1924Z" fill="#5E5EF7"/>
</g>
<defs>
<linearGradient id="paint0_linear_37_1242" x1="16.6916" y1="41.9952" x2="47.3798" y2="11.0678" gradientUnits="userSpaceOnUse">
<stop stop-color="#95F9B0"/>
<stop offset="1" stop-color="#A4EAF7"/>
</linearGradient>
<linearGradient id="paint1_linear_37_1242" x1="30.3881" y1="32.089" x2="23.784" y2="24.8155" gradientUnits="userSpaceOnUse">
<stop stop-color="#262840"/>
<stop offset="1" stop-color="#5D5DF6"/>
</linearGradient>
<linearGradient id="paint2_linear_37_1242" x1="4.40949" y1="30.3068" x2="-3.60971" y2="22.0019" gradientUnits="userSpaceOnUse">
<stop stop-color="#262840"/>
<stop offset="1" stop-color="#5E5EF7"/>
</linearGradient>
<clipPath id="clip0_37_1242">
<rect width="58.6486" height="70" fill="white"/>
</clipPath>
</defs>
</svg>
