<svg width="158" height="40" viewBox="0 0 158 40" fill="none" xmlns="http://www.w3.org/2000/svg">
<path fill-rule="evenodd" clip-rule="evenodd" d="M59.928 11.0213H56.4719L50.8458 29.1027H54.1114L55.3621 24.865H61.0114L62.2893 29.1027H65.5542L59.928 11.0213ZM60.1743 22.0719H56.1992L58.1991 15.4148L60.1743 22.0719Z" fill="white"/>
<path d="M73.9383 11.0213H68.0513V13.869H70.8246V26.2687H68.0513V29.1027H77.0366V26.2687H73.9383V11.0213Z" fill="white"/>
<path d="M83.5676 11.0213H80.4539V16.1038H77.5855V18.9514H80.4539V24.2928C80.4539 25.036 80.5744 25.7265 80.8172 26.3628L80.8176 26.3641L80.8181 26.3653C81.0698 26.9914 81.4205 27.531 81.8706 27.9822C82.3212 28.4338 82.8645 28.7853 83.4983 29.0375C84.1342 29.2906 84.833 29.4161 85.5928 29.4161C86.9742 29.4161 88.1345 29.0156 89.0627 28.2074C90.0007 27.3894 90.5416 26.2902 90.6902 24.9221L90.7046 24.7893L87.9365 24.1643L87.9181 24.3308C87.8485 24.9581 87.628 25.4883 87.259 25.9269C86.9062 26.3463 86.3611 26.5684 85.5928 26.5684C84.9734 26.5684 84.4882 26.38 84.122 26.0129C83.7617 25.6518 83.5676 25.0885 83.5676 24.2928V18.9514H88.883V16.1038H83.5676V11.0213Z" fill="white"/>
<path d="M105.173 11.0213H102.059V29.1027H113.696V26.2687H105.173V11.0213Z" fill="white"/>
<path fill-rule="evenodd" clip-rule="evenodd" d="M134.177 11.0213H131.064V29.1027H134.177V28.1092C134.64 28.4945 135.108 28.7987 135.582 29.0204L135.582 29.0206L135.583 29.0208C136.158 29.2855 136.81 29.4161 137.535 29.4161C138.371 29.4161 139.15 29.2482 139.869 28.9114C140.586 28.5754 141.201 28.1082 141.713 27.5106L141.714 27.5102L141.714 27.5097C142.226 26.9039 142.628 26.1837 142.924 25.3512C143.22 24.5158 143.367 23.6038 143.367 22.6168C143.367 21.6389 143.22 20.7318 142.924 19.8966C142.629 19.055 142.226 18.3342 141.714 17.7368C141.201 17.1304 140.586 16.6587 139.869 16.3226C139.15 15.9765 138.372 15.804 137.535 15.804C136.811 15.804 136.16 15.9296 135.585 16.1845C135.11 16.3911 134.641 16.6871 134.177 17.0707V11.0213ZM135.359 18.928C135.87 18.7335 136.355 18.638 136.814 18.638C137.834 18.638 138.653 19.0025 139.284 19.7309L139.284 19.7313L139.285 19.7316C139.927 20.462 140.254 21.419 140.254 22.6168C140.254 23.8148 139.927 24.7668 139.285 25.4877L139.285 25.4881L139.285 25.4885C138.653 26.208 137.834 26.5684 136.814 26.5684C136.355 26.5684 135.869 26.4772 135.358 26.2918C134.882 26.1073 134.489 25.848 134.177 25.5153V19.6911C134.489 19.359 134.881 19.1044 135.357 18.9285L135.358 18.9282L135.359 18.928Z" fill="white"/>
<path fill-rule="evenodd" clip-rule="evenodd" d="M122.306 15.804C121.232 15.804 120.208 15.9465 119.233 16.2323C118.27 16.5081 117.366 16.8897 116.521 17.3774L116.398 17.449L117.677 19.9228L117.813 19.8442C118.509 19.4421 119.244 19.1383 120.02 18.9328L120.02 18.9326L120.021 18.9324C120.798 18.7177 121.559 18.6108 122.306 18.6108C123.122 18.6108 123.761 18.7708 124.237 19.0774L124.237 19.0777L124.238 19.078C124.707 19.3749 124.943 19.8197 124.943 20.4367V20.7755C124.643 20.747 124.347 20.725 124.054 20.7095C123.706 20.6912 123.291 20.6821 122.809 20.6821C121.928 20.6821 121.061 20.7786 120.207 20.9718C119.361 21.1563 118.603 21.4383 117.936 21.8191L117.935 21.8193L117.935 21.8195C117.275 22.2018 116.737 22.6835 116.325 23.2653C115.906 23.8472 115.699 24.5279 115.699 25.3011C115.699 25.9645 115.82 26.5592 116.067 27.0819L116.067 27.0834L116.068 27.0848C116.321 27.5927 116.655 28.0225 117.071 28.3725C117.486 28.7227 117.976 28.9817 118.537 29.1506C119.105 29.3278 119.705 29.4161 120.335 29.4161C121.351 29.4161 122.301 29.2214 123.182 28.8309C123.911 28.5111 124.5 28.0831 124.943 27.5453V29.1027H128.029V20.4367C128.029 19.5828 127.868 18.8565 127.535 18.2653C127.206 17.6727 126.764 17.1916 126.209 16.8238C125.667 16.4587 125.052 16.1976 124.365 16.0395C123.692 15.8825 123.006 15.804 122.306 15.804ZM118.785 25.1512C118.785 24.6953 119.077 24.2863 119.751 23.9352C120.427 23.5882 121.44 23.4071 122.809 23.4071C123.107 23.4071 123.45 23.4116 123.839 23.4206C124.184 23.4287 124.552 23.4622 124.943 23.5215V23.8704C124.943 24.2705 124.841 24.6339 124.639 24.9639L124.638 24.9651L124.637 24.9663C124.441 25.2995 124.168 25.5879 123.813 25.8309C123.456 26.0665 123.04 26.2557 122.563 26.3973C122.098 26.5292 121.595 26.5957 121.055 26.5957C120.26 26.5957 119.69 26.4639 119.323 26.2218C118.966 25.987 118.785 25.6383 118.785 25.1512Z" fill="white"/>
<path d="M151.682 15.804C150.964 15.804 150.247 15.8777 149.531 16.0251C148.81 16.1733 148.156 16.4147 147.57 16.7504L147.569 16.7506L147.569 16.7509C146.989 17.0884 146.515 17.5209 146.148 18.0485L146.148 18.0489C145.784 18.5766 145.605 19.1975 145.605 19.9053C145.605 20.5964 145.74 21.1833 146.02 21.6574L146.02 21.6584L146.021 21.6593C146.305 22.1237 146.678 22.5077 147.141 22.8103C147.599 23.1104 148.125 23.3433 148.718 23.5104L148.72 23.5108L148.721 23.5112C149.315 23.6668 149.94 23.7995 150.597 23.9092L150.597 23.9093L150.598 23.9094C151.412 24.0363 152.089 24.1584 152.629 24.2757L152.63 24.276L152.631 24.2763C153.181 24.3846 153.617 24.4965 153.943 24.6112L153.945 24.6118L153.946 24.6124C154.274 24.7191 154.49 24.8334 154.611 24.947C154.724 25.0534 154.781 25.1857 154.781 25.3556C154.781 25.7045 154.577 25.9979 154.092 26.2282C153.606 26.45 152.809 26.5684 151.682 26.5684C150.863 26.5684 150.043 26.4525 149.222 26.2201C148.412 25.9792 147.513 25.5717 146.523 24.9946L146.386 24.9144L145.085 27.4925L145.197 27.5658C146.045 28.1202 147.047 28.5663 148.2 28.9058C149.355 29.2458 150.516 29.4161 151.682 29.4161C152.379 29.4161 153.09 29.3517 153.814 29.2232C154.553 29.1026 155.222 28.8798 155.818 28.5531C156.426 28.2249 156.924 27.7923 157.309 27.2552C157.704 26.7053 157.895 25.9999 157.895 25.1512C157.895 24.4696 157.76 23.8879 157.481 23.4144C157.214 22.9378 156.838 22.552 156.356 22.2579C155.878 21.9577 155.311 21.7254 154.656 21.559C154.006 21.3847 153.289 21.2429 152.505 21.1332C151.075 20.9246 150.073 20.7174 149.489 20.5138C148.906 20.2976 148.705 20.0541 148.705 19.8235C148.705 19.6144 148.784 19.4417 148.952 19.2964L148.953 19.296C149.143 19.1297 149.383 18.998 149.675 18.9032L149.677 18.9026L149.679 18.9019C149.975 18.7974 150.298 18.727 150.65 18.6918C151.008 18.6559 151.352 18.638 151.682 18.638C152.469 18.638 153.186 18.7187 153.834 18.8789L153.836 18.8792L153.837 18.8794C154.488 19.0294 155.161 19.3215 155.857 19.7595L155.996 19.8469L157.245 17.4032L157.136 17.3289C156.413 16.8369 155.573 16.4627 154.617 16.2046C153.67 15.9374 152.692 15.804 151.682 15.804Z" fill="white"/>
<path d="M39.2055 34.5377L36.087 31.4193C35.7476 31.0798 35.558 30.6212 35.558 30.1426V4.43843H9.85554C9.37703 4.43843 8.91658 4.24883 8.57891 3.90935L5.46045 0.792705C4.95305 0.285302 4.26327 0 3.54641 0H0V9.32105V40H30.6789H40V36.4536C39.9982 35.7349 39.7129 35.0451 39.2055 34.5377ZM4.51427 35.4839V13.8353H17.7537C18.2322 13.8353 18.6927 14.0249 19.0303 14.3644L25.6356 20.9697C25.9751 21.3091 26.1647 21.7678 26.1647 22.2463V35.4857H4.51427V35.4839ZM26.2243 20.809V13.7703H19.1856C18.7071 13.7703 18.2467 13.5807 17.909 13.2412L14.7815 10.1138C14.2741 9.60636 13.5843 9.32105 12.8657 9.32105H4.51427V4.51427H8.43445C8.91296 4.51427 9.37342 4.70386 9.71109 5.04334L13.1419 8.47418C13.6529 8.98519 14.3463 9.2723 15.0686 9.2723H30.7259V24.9296C30.7259 25.6519 31.013 26.3453 31.524 26.8563L34.9567 30.2889C35.2961 30.6284 35.4857 31.087 35.4857 31.5655V35.4857H30.6789V27.1343C30.6789 26.4157 30.3936 25.7277 29.8862 25.2185L26.7533 22.0856C26.4139 21.7461 26.2243 21.2875 26.2243 20.809Z" fill="url(#paint0_linear)"/>
<defs>
<linearGradient id="paint0_linear" x1="9.25" y1="5.69471" x2="35.5" y2="31.9399" gradientUnits="userSpaceOnUse">
<stop stop-color="#92EBFF"/>
<stop offset="0.489583" stop-color="#8B97FF"/>
<stop offset="1" stop-color="#67FF9B"/>
</linearGradient>
</defs>
</svg>
