<svg width="119" height="30" viewBox="0 0 119 30" fill="none" xmlns="http://www.w3.org/2000/svg">
<path fill-rule="evenodd" clip-rule="evenodd" d="M44.9461 8.26587H42.354L38.1344 21.8269H40.5836L41.5216 18.6486H45.7586L46.717 21.8269H49.1657L44.9461 8.26587ZM45.1308 16.5538H42.1494L43.6494 11.5609L45.1308 16.5538Z" fill="#EFF0F2"/>
<path d="M55.4538 8.26587H51.0385V10.4016H53.1185V19.7014H51.0385V21.8269H57.7775V19.7014H55.4538V8.26587Z" fill="#EFF0F2"/>
<path d="M62.6757 8.26587H60.3404V12.0777H58.1891V14.2134H60.3404V18.2195C60.3404 18.7768 60.4308 19.2947 60.6129 19.772L60.6133 19.7729L60.6136 19.7739C60.8024 20.2434 61.0654 20.6481 61.403 20.9865C61.7409 21.3252 62.1484 21.5888 62.6237 21.778C63.1007 21.9678 63.6248 22.0619 64.1947 22.0619C65.2307 22.0619 66.1009 21.7615 66.797 21.1554C67.5006 20.5419 67.9062 19.7175 68.0177 18.6915L68.0285 18.5919L65.9524 18.1231L65.9386 18.248C65.8864 18.7185 65.721 19.1161 65.4443 19.445C65.1797 19.7596 64.7709 19.9262 64.1947 19.9262C63.7301 19.9262 63.3662 19.7849 63.0915 19.5096C62.8213 19.2387 62.6757 18.8163 62.6757 18.2195V14.2134H66.6623V12.0777H62.6757V8.26587Z" fill="#EFF0F2"/>
<path d="M78.8795 8.26587H76.5442V21.8269H85.2722V19.7014H78.8795V8.26587Z" fill="#EFF0F2"/>
<path fill-rule="evenodd" clip-rule="evenodd" d="M100.633 8.26587H98.2978V21.8269H100.633V21.0817C100.98 21.3707 101.331 21.5989 101.686 21.7652L101.687 21.7653L101.687 21.7655C102.119 21.964 102.607 22.0619 103.151 22.0619C103.779 22.0619 104.362 21.9361 104.902 21.6834C105.439 21.4314 105.901 21.081 106.285 20.6328L106.285 20.6325L106.286 20.6322C106.669 20.1778 106.971 19.6376 107.193 19.0133C107.415 18.3867 107.525 17.7027 107.525 16.9625C107.525 16.2291 107.415 15.5487 107.193 14.9223C106.971 14.2911 106.669 13.7505 106.285 13.3025C105.901 12.8477 105.44 12.4939 104.902 12.2418C104.363 11.9822 103.779 11.8529 103.151 11.8529C102.608 11.8529 102.12 11.9471 101.689 12.1382C101.332 12.2932 100.98 12.5152 100.633 12.8029V8.26587ZM101.519 14.1959C101.903 14.05 102.266 13.9784 102.611 13.9784C103.375 13.9784 103.989 14.2517 104.463 14.798L104.463 14.7983L104.464 14.7986C104.945 15.3463 105.19 16.0641 105.19 16.9625C105.19 17.8609 104.945 18.575 104.464 19.1157L104.464 19.116L104.464 19.1162C103.99 19.6559 103.376 19.9262 102.611 19.9262C102.266 19.9262 101.902 19.8578 101.519 19.7187C101.161 19.5803 100.867 19.3859 100.633 19.1364V14.7682C100.867 14.5191 101.161 14.3281 101.518 14.1962L101.519 14.1961L101.519 14.1959Z" fill="#EFF0F2"/>
<path fill-rule="evenodd" clip-rule="evenodd" d="M91.7295 11.8529C90.9243 11.8529 90.1559 11.9598 89.4247 12.1741C88.7025 12.3809 88.0245 12.6672 87.3911 13.0329L87.2982 13.0866L88.258 14.942L88.36 14.883C88.8816 14.5814 89.4331 14.3536 90.0148 14.1994L90.0154 14.1993L90.016 14.1991C90.5983 14.0381 91.1694 13.9579 91.7295 13.9579C92.3412 13.9579 92.8208 14.078 93.1776 14.3079L93.1779 14.3082L93.1783 14.3084C93.5301 14.5311 93.7072 14.8646 93.7072 15.3274V15.5815C93.4826 15.5601 93.2603 15.5436 93.0405 15.532C92.7796 15.5182 92.4683 15.5114 92.1067 15.5114C91.446 15.5114 90.7955 15.5838 90.1553 15.7287C89.5205 15.8671 88.9523 16.0786 88.4519 16.3642L88.4516 16.3644L88.4513 16.3645C87.956 16.6512 87.5529 17.0125 87.2438 17.4488C86.9298 17.8853 86.7741 18.3958 86.7741 18.9757C86.7741 19.4732 86.8651 19.9193 87.0499 20.3113L87.0505 20.3124L87.051 20.3135C87.241 20.6944 87.4917 21.0168 87.803 21.2792C88.1147 21.5419 88.482 21.7362 88.903 21.8628C89.3289 21.9957 89.7785 22.0619 90.2511 22.0619C91.0135 22.0619 91.7259 21.9159 92.3868 21.6231C92.9336 21.3832 93.3749 21.0622 93.7072 20.6588V21.8269H96.0221V15.3274C96.0221 14.687 95.9007 14.1422 95.651 13.6988C95.4046 13.2544 95.073 12.8935 94.6568 12.6177C94.2503 12.3439 93.7889 12.1481 93.2739 12.0295C92.7693 11.9117 92.2544 11.8529 91.7295 11.8529ZM89.089 18.8633C89.089 18.5214 89.308 18.2146 89.8135 17.9513C90.3201 17.691 91.0804 17.5552 92.1067 17.5552C92.33 17.5552 92.5873 17.5585 92.879 17.5653C93.1378 17.5714 93.4138 17.5965 93.7072 17.641V17.9027C93.7072 18.2027 93.6311 18.4753 93.4791 18.7228L93.4786 18.7237L93.478 18.7246C93.331 18.9745 93.1257 19.1908 92.8597 19.373C92.5918 19.5497 92.2798 19.6916 91.9224 19.7978C91.5733 19.8968 91.1965 19.9466 90.7915 19.9466C90.1953 19.9466 89.7677 19.8478 89.4922 19.6663C89.2248 19.4901 89.089 19.2286 89.089 18.8633Z" fill="#EFF0F2"/>
<path d="M113.761 11.8529C113.223 11.8529 112.686 11.9082 112.148 12.0187C111.607 12.1299 111.117 12.3109 110.677 12.5627L110.677 12.5629L110.677 12.563C110.242 12.8162 109.886 13.1406 109.611 13.5362L109.611 13.5366C109.338 13.9323 109.204 14.398 109.204 14.9288C109.204 15.4472 109.305 15.8873 109.515 16.2429L109.515 16.2437L109.516 16.2444C109.728 16.5927 110.009 16.8806 110.356 17.1076C110.699 17.3326 111.094 17.5074 111.539 17.6327L111.54 17.633L111.541 17.6332C111.986 17.75 112.455 17.8495 112.947 17.9317L112.948 17.9318L112.949 17.9319C113.559 18.0271 114.067 18.1187 114.472 18.2066L114.473 18.2069L114.474 18.2071C114.886 18.2883 115.213 18.3722 115.457 18.4583L115.459 18.4588L115.46 18.4592C115.706 18.5392 115.867 18.6249 115.958 18.7101C116.043 18.7899 116.086 18.8892 116.086 19.0166C116.086 19.2783 115.933 19.4983 115.569 19.671C115.205 19.8374 114.607 19.9262 113.761 19.9262C113.147 19.9262 112.532 19.8392 111.917 19.665C111.309 19.4842 110.635 19.1786 109.893 18.7458L109.789 18.6857L108.813 20.6192L108.898 20.6742C109.534 21.09 110.285 21.4246 111.15 21.6792C112.016 21.9342 112.887 22.0619 113.761 22.0619C114.285 22.0619 114.818 22.0136 115.36 21.9172C115.915 21.8268 116.416 21.6597 116.863 21.4147C117.319 21.1686 117.693 20.8441 117.982 20.4413C118.278 20.0289 118.421 19.4998 118.421 18.8633C118.421 18.3521 118.32 17.9158 118.11 17.5607C117.91 17.2032 117.628 16.9139 117.267 16.6933C116.909 16.4682 116.483 16.2939 115.992 16.1691C115.504 16.0384 114.967 15.932 114.379 15.8498C113.306 15.6933 112.555 15.5379 112.117 15.3852C111.679 15.2231 111.529 15.0405 111.529 14.8675C111.529 14.7107 111.588 14.5811 111.714 14.4721L111.714 14.4719C111.858 14.3472 112.037 14.2483 112.256 14.1773L112.258 14.1768L112.259 14.1763C112.481 14.0979 112.723 14.0451 112.987 14.0187C113.256 13.9918 113.514 13.9784 113.761 13.9784C114.352 13.9784 114.89 14.0389 115.376 14.159L115.377 14.1593L115.378 14.1595C115.866 14.2719 116.371 14.491 116.893 14.8195L116.997 14.885L117.934 13.0523L117.852 12.9965C117.31 12.6276 116.68 12.3469 115.963 12.1533C115.253 11.953 114.519 11.8529 113.761 11.8529Z" fill="#EFF0F2"/>
<path d="M29.4041 25.9033L27.0653 23.5645C26.8107 23.3099 26.6685 22.9659 26.6685 22.607V3.32882H7.39166C7.03277 3.32882 6.68743 3.18662 6.43418 2.93202L4.09534 0.594529C3.71479 0.213976 3.19745 0 2.6598 0H0V6.99079V30H23.0092H30V27.3402C29.9986 26.8012 29.7847 26.2839 29.4041 25.9033ZM3.3857 26.6129V10.3765H13.3153C13.6742 10.3765 14.0195 10.5187 14.2728 10.7733L19.2267 15.7272C19.4813 15.9819 19.6235 16.3258 19.6235 16.6847V26.6143H3.3857V26.6129ZM19.6682 15.6067V10.3277H14.3892C14.0303 10.3277 13.685 10.1855 13.4317 9.93093L11.0861 7.58532C10.7056 7.20477 10.1882 6.99079 9.64924 6.99079H3.3857V3.3857H6.32584C6.68472 3.3857 7.03006 3.5279 7.28332 3.7825L9.85645 6.35563C10.2397 6.73889 10.7598 6.95423 11.3015 6.95423H23.0444V18.6972C23.0444 19.2389 23.2598 19.7589 23.643 20.1422L26.2175 22.7167C26.4721 22.9713 26.6143 23.3153 26.6143 23.6742V26.6143H23.0092V20.3508C23.0092 19.8118 22.7952 19.2958 22.4147 18.9139L20.065 16.5642C19.8104 16.3096 19.6682 15.9656 19.6682 15.6067Z" fill="#EFF0F2"/>
</svg>
