<svg width="280" height="285" viewBox="0 0 280 300" fill="none" xmlns="http://www.w3.org/2000/svg">
<rect width="280" height="300" fill="#EFF0F7"/>
<path d="M176.667 116.667H162.5L159.125 107.208C158.892 106.561 158.465 106.002 157.901 105.606C157.338 105.211 156.667 104.999 155.979 105H124.021C122.615 105 121.354 105.885 120.885 107.208L117.5 116.667H103.333C98.7292 116.667 95 120.396 95 125V172.5C95 177.104 98.7292 180.833 103.333 180.833H176.667C181.271 180.833 185 177.104 185 172.5V125C185 120.396 181.271 116.667 176.667 116.667ZM140 164.167C130.792 164.167 123.333 156.708 123.333 147.5C123.333 138.292 130.792 130.833 140 130.833C149.208 130.833 156.667 138.292 156.667 147.5C156.667 156.708 149.208 164.167 140 164.167ZM130 147.5C130 150.152 131.054 152.696 132.929 154.571C134.804 156.446 137.348 157.5 140 157.5C142.652 157.5 145.196 156.446 147.071 154.571C148.946 152.696 150 150.152 150 147.5C150 144.848 148.946 142.304 147.071 140.429C145.196 138.554 142.652 137.5 140 137.5C137.348 137.5 134.804 138.554 132.929 140.429C131.054 142.304 130 144.848 130 147.5Z" fill="#D9DBE9"/>
</svg>
