<svg width="170" height="170" viewBox="0 0 170 170" fill="none" xmlns="http://www.w3.org/2000/svg">
<g clip-path="url(#clip0)">
<path d="M106.413 137.809L72.3936 93.3996H83.7806C97.7158 93.3996 109.054 83.4952 109.054 71.3189C109.054 59.1432 97.7158 49.2386 83.7806 49.2386H13.0736V43.9681H83.7824C100.624 43.9681 114.325 56.2372 114.325 71.3189C114.325 86.4008 100.624 98.6702 83.7824 98.6702H83.0717L114.325 137.809H106.413Z" fill="white" stroke="white" stroke-width="4"/>
<path d="M84.9982 1.20142C56.3587 1.20142 32.6485 12.9185 17.528 34.9005C19.7553 34.8952 22.7369 34.9164 24.9766 34.8812C39.336 16.053 59.5477 6.4719 85 6.4719C128.3 6.4719 163.528 41.6987 163.528 85C163.528 128.301 128.3 163.528 85 163.528C41.6987 163.528 6.4719 128.301 6.4719 85C6.4719 69.4892 10.7948 56.1038 18.588 43.9138C16.5154 43.9296 14.4532 43.9085 12.3876 43.9138C5.17274 56.2866 1.20142 69.6736 1.20142 85C1.20142 131.208 38.7927 168.799 85 168.799C131.208 168.799 168.799 131.208 168.799 85C168.799 38.7927 131.206 1.20142 84.9982 1.20142Z" fill="white" stroke="white" stroke-width="4"/>
</g>
<defs>
<clipPath id="clip0">
<rect width="170" height="170" fill="white"/>
</clipPath>
</defs>
</svg>
