<svg width="16" height="15" viewBox="0 0 16 15" fill="none" xmlns="http://www.w3.org/2000/svg">
<g clip-path="url(#clip0_131_2384)">
<path d="M6.06029 11.7817C5.97835 11.6172 5.83557 11.6006 5.77779 11.6006C5.72001 11.6006 5.57724 11.6169 5.49946 11.7725L5.2864 12.1986C5.10946 12.5536 4.59112 12.5144 4.46751 12.1406L4.00001 10.7386L3.70529 11.6242C3.54168 12.1147 3.08362 12.4444 2.5664 12.4444H2.22223C1.97667 12.4444 1.77778 12.2456 1.77778 12C1.77778 11.7544 1.97667 11.5556 2.22223 11.5556H2.5664C2.70056 11.5556 2.81945 11.47 2.86195 11.3428L3.36723 9.825C3.4589 9.5525 3.71279 9.36917 4.00001 9.36917C4.28723 9.36917 4.54112 9.55222 4.63251 9.825L5.01807 10.9817C5.56668 10.5319 6.51974 10.7122 6.85141 11.375C6.90391 11.48 7.00391 11.5403 7.11141 11.5489V9.26778L10.667 5.7375V4.44444H6.88891C6.52224 4.44444 6.22224 4.14444 6.22224 3.77778V0H0.666668C0.297223 0 0 0.297222 0 0.666667V13.5556C0 13.925 0.297223 14.2222 0.666668 14.2222H10C10.3695 14.2222 10.6667 13.925 10.6667 13.5556V12.4444L7.11113 12.4414C6.66335 12.4328 6.26168 12.1836 6.06029 11.7817ZM10.6667 3.38611C10.6667 3.21111 10.5972 3.04167 10.4722 2.91667L7.7528 0.194444C7.6278 0.0694444 7.45835 0 7.28057 0H7.11113V3.55556H10.6667V3.38611ZM8.00002 9.63778V11.5556H9.91641L14.4075 7.03389L12.522 5.14833L8.00002 9.63778ZM15.7928 4.64806L14.9075 3.76278C14.6314 3.48667 14.1834 3.48667 13.9073 3.76278L13.1503 4.51972L15.0359 6.40528L15.7928 5.64833C16.0692 5.37222 16.0692 4.92417 15.7928 4.64806Z" fill="#A0A3BD"/>
</g>
<defs>
<clipPath id="clip0_131_2384">
<rect width="16" height="14.2222" fill="white"/>
</clipPath>
</defs>
</svg>
