<svg width="16" height="16" viewBox="0 0 16 16" fill="none" xmlns="http://www.w3.org/2000/svg">
<path fill-rule="evenodd" clip-rule="evenodd" d="M3.37341 10.1067C3.37358 10.3274 3.33023 10.546 3.24582 10.7499C3.16141 10.9539 3.03761 11.1392 2.88151 11.2952C2.7254 11.4513 2.54005 11.575 2.33607 11.6593C2.13208 11.7437 1.91347 11.7869 1.69275 11.7867C1.47214 11.7868 1.25367 11.7434 1.04984 11.6589C0.846015 11.5745 0.660823 11.4508 0.504858 11.2948C0.348892 11.1387 0.225212 10.9535 0.140888 10.7496C0.0565648 10.5458 0.0132526 10.3273 0.0134283 10.1067C0.0132525 9.886 0.0565868 9.66747 0.140952 9.46356C0.225317 9.25966 0.349057 9.07438 0.505094 8.91835C0.66113 8.76231 0.846401 8.63857 1.05031 8.55421C1.25421 8.46984 1.47275 8.42651 1.69342 8.42668H3.37408V10.1067H3.37341ZM4.2134 10.1067C4.21323 9.886 4.25656 9.66747 4.34093 9.46356C4.42529 9.25966 4.54903 9.07438 4.70507 8.91835C4.86111 8.76231 5.04638 8.63857 5.25028 8.55421C5.45419 8.46984 5.67272 8.42651 5.89339 8.42668C6.11406 8.42651 6.3326 8.46984 6.5365 8.55421C6.74041 8.63857 6.92568 8.76231 7.08172 8.91835C7.23775 9.07438 7.36149 9.25966 7.44586 9.46356C7.53022 9.66747 7.57356 9.886 7.57338 10.1067V14.3073C7.57356 14.528 7.53022 14.7465 7.44586 14.9504C7.36149 15.1543 7.23775 15.3396 7.08172 15.4956C6.92568 15.6517 6.74041 15.7754 6.5365 15.8598C6.3326 15.9441 6.11406 15.9875 5.89339 15.9873C5.67272 15.9875 5.45419 15.9441 5.25028 15.8598C5.04638 15.7754 4.86111 15.6517 4.70507 15.4956C4.54903 15.3396 4.42529 15.1543 4.34093 14.9504C4.25656 14.7465 4.21323 14.528 4.2134 14.3073V10.1067Z" fill="#0A0521"/>
<path fill-rule="evenodd" clip-rule="evenodd" d="M5.89333 3.36065C5.6726 3.36082 5.45401 3.31747 5.25006 3.23306C5.04611 3.14865 4.86081 3.02485 4.70477 2.86875C4.54872 2.71264 4.425 2.52729 4.34067 2.32331C4.25635 2.11933 4.21308 1.90072 4.21334 1.67999C4.21316 1.45932 4.2565 1.24078 4.34086 1.03688C4.42523 0.832973 4.54897 0.647703 4.70501 0.491666C4.86104 0.33563 5.04631 0.211889 5.25022 0.127524C5.45412 0.043159 5.67266 -0.000175229 5.89333 5.32522e-07C6.114 -0.000175229 6.33254 0.043159 6.53644 0.127524C6.74035 0.211889 6.92562 0.33563 7.08165 0.491666C7.23769 0.647703 7.36143 0.832973 7.4458 1.03688C7.53016 1.24078 7.5735 1.45932 7.57332 1.67999V3.36132H5.894L5.89333 3.36065ZM5.89333 4.21334C6.114 4.21316 6.33254 4.2565 6.53644 4.34086C6.74035 4.42523 6.92562 4.54897 7.08165 4.70501C7.23769 4.86104 7.36143 5.04631 7.4458 5.25022C7.53016 5.45412 7.5735 5.67266 7.57332 5.89333C7.5735 6.114 7.53016 6.33254 7.4458 6.53644C7.36143 6.74035 7.23769 6.92562 7.08165 7.08165C6.92562 7.23769 6.74035 7.36143 6.53644 7.4458C6.33254 7.53016 6.114 7.5735 5.89333 7.57332H1.67999C1.45938 7.5735 1.24089 7.53018 1.03703 7.44586C0.833171 7.36154 0.64793 7.23786 0.491903 7.08189C0.335875 6.92592 0.212121 6.74073 0.127716 6.5369C0.0433117 6.33308 -8.73609e-05 6.11461 5.32522e-07 5.894C-0.000175229 5.67333 0.043159 5.45479 0.127524 5.25089C0.211889 5.04698 0.33563 4.86171 0.491666 4.70567C0.647703 4.54964 0.832973 4.4259 1.03688 4.34153C1.24078 4.25717 1.45932 4.21383 1.67999 4.21401H5.894L5.89333 4.21334Z" fill="#0A0521"/>
<path fill-rule="evenodd" clip-rule="evenodd" d="M12.6267 5.89333C12.6265 5.67261 12.6698 5.45401 12.7543 5.25006C12.8387 5.04612 12.9625 4.86082 13.1186 4.70477C13.2747 4.54872 13.46 4.425 13.664 4.34067C13.868 4.25635 14.0866 4.21308 14.3073 4.21334C14.528 4.21317 14.7465 4.2565 14.9504 4.34086C15.1543 4.42523 15.3396 4.54897 15.4957 4.70501C15.6517 4.86104 15.7754 5.04631 15.8598 5.25022C15.9442 5.45412 15.9875 5.67266 15.9873 5.89333C15.9875 6.114 15.9442 6.33254 15.8598 6.53644C15.7754 6.74035 15.6517 6.92562 15.4957 7.08166C15.3396 7.23769 15.1543 7.36143 14.9504 7.4458C14.7465 7.53016 14.528 7.5735 14.3073 7.57332H12.6267V5.894V5.89333ZM11.7867 5.89333C11.7868 6.114 11.7435 6.33254 11.6591 6.53644C11.5748 6.74035 11.451 6.92562 11.295 7.08166C11.139 7.23769 10.9537 7.36143 10.7498 7.4458C10.5459 7.53016 10.3274 7.5735 10.1067 7.57332C9.88596 7.57358 9.66735 7.53031 9.46337 7.44599C9.25938 7.36166 9.07403 7.23794 8.91793 7.08189C8.76182 6.92585 8.63802 6.74055 8.55361 6.5366C8.46921 6.33265 8.42585 6.11406 8.42603 5.89333V1.67999C8.42585 1.45927 8.46921 1.24067 8.55361 1.03672C8.63802 0.832776 8.76182 0.647475 8.91793 0.49143C9.07403 0.335385 9.25938 0.211658 9.46337 0.127333C9.66735 0.0430069 9.88596 -0.000262477 10.1067 1.19786e-06C10.3274 -0.000174564 10.5459 0.0431597 10.7498 0.127525C10.9537 0.21189 11.139 0.33563 11.295 0.491667C11.451 0.647703 11.5748 0.832974 11.6591 1.03688C11.7435 1.24078 11.7868 1.45932 11.7867 1.67999V5.894V5.89333Z" fill="#0A0521"/>
<path fill-rule="evenodd" clip-rule="evenodd" d="M10.1067 12.6267C10.3274 12.6265 10.546 12.6698 10.7499 12.7542C10.9538 12.8385 11.139 12.9623 11.2951 13.1183C11.4511 13.2744 11.5748 13.4596 11.6592 13.6635C11.7436 13.8674 11.7869 14.086 11.7867 14.3066C11.787 14.5274 11.7437 14.746 11.6594 14.95C11.5751 15.1539 11.4514 15.3393 11.2953 15.4954C11.1393 15.6515 10.954 15.7753 10.75 15.8597C10.5461 15.9441 10.3275 15.9875 10.1067 15.9873C9.88602 15.9875 9.66743 15.9441 9.46348 15.8597C9.25953 15.7753 9.07423 15.6515 8.91819 15.4954C8.76214 15.3393 8.63842 15.1539 8.55409 14.95C8.46977 14.746 8.4265 14.5274 8.42676 14.3066V12.6267H10.1067ZM10.1067 11.7867C9.88608 11.7868 9.66754 11.7435 9.46364 11.6591C9.25973 11.5748 9.07446 11.451 8.91842 11.295C8.76239 11.139 8.63865 10.9537 8.55428 10.7498C8.46992 10.5459 8.42658 10.3273 8.42676 10.1067C8.42658 9.886 8.46992 9.66747 8.55428 9.46356C8.63865 9.25966 8.76239 9.07438 8.91842 8.91835C9.07446 8.76231 9.25973 8.63857 9.46364 8.55421C9.66754 8.46984 9.88608 8.42651 10.1067 8.42668H14.3201C14.5408 8.42651 14.7593 8.46984 14.9632 8.55421C15.1671 8.63857 15.3524 8.76231 15.5084 8.91835C15.6644 9.07438 15.7882 9.25966 15.8726 9.46356C15.9569 9.66747 16.0003 9.886 16.0001 10.1067C16.0003 10.3273 15.9569 10.5459 15.8726 10.7498C15.7882 10.9537 15.6644 11.139 15.5084 11.295C15.3524 11.451 15.1671 11.5748 14.9632 11.6591C14.7593 11.7435 14.5408 11.7868 14.3201 11.7867H10.1067Z" fill="#0A0521"/>
</svg>
