<svg width="16" height="16" viewBox="0 0 16 16" fill="none" xmlns="http://www.w3.org/2000/svg">
<path d="M12.4499 15.2608C12.3202 15.2605 12.1925 15.2286 12.0778 15.168L8 13.0239L3.92215 15.168C3.79012 15.2372 3.64138 15.2681 3.49272 15.2572C3.34405 15.2464 3.20137 15.1943 3.08076 15.1067C2.96014 15.0191 2.8664 14.8995 2.81009 14.7615C2.75379 14.6235 2.73716 14.4725 2.76208 14.3255L3.54053 9.78447L0.241133 6.56827C0.134398 6.46406 0.0589249 6.33208 0.0232352 6.18724C-0.0124545 6.0424 -0.00693905 5.89047 0.0391587 5.7486C0.0852565 5.60673 0.170101 5.48057 0.28411 5.38437C0.39812 5.28817 0.536755 5.22576 0.684359 5.20419L5.24383 4.54175L7.28316 0.410304C7.35662 0.285369 7.46144 0.18179 7.58725 0.109824C7.71305 0.0378575 7.85547 0 8.0004 0C8.14533 0 8.28775 0.0378575 8.41356 0.109824C8.53936 0.18179 8.64418 0.285369 8.71764 0.410304L10.7562 4.54175L15.3156 5.20419C15.4632 5.22576 15.6019 5.28817 15.7159 5.38437C15.8299 5.48057 15.9147 5.60673 15.9608 5.7486C16.0069 5.89047 16.0125 6.0424 15.9768 6.18724C15.9411 6.33208 15.8656 6.46406 15.7589 6.56827L12.4595 9.78447L13.2387 14.3255C13.2584 14.4403 13.2528 14.558 13.2223 14.6704C13.1917 14.7828 13.137 14.8872 13.062 14.9763C12.9869 15.0653 12.8934 15.1369 12.7878 15.1861C12.6822 15.2352 12.5671 15.2607 12.4507 15.2608H12.4499Z" fill="#A0A3BD"/>
</svg>
