<svg width="132" height="24" viewBox="0 0 132 24" fill="none" xmlns="http://www.w3.org/2000/svg">
<path d="M16.4499 19.2608C16.3202 19.2605 16.1925 19.2286 16.0778 19.168L12 17.0239L7.92215 19.168C7.79012 19.2372 7.64138 19.2681 7.49271 19.2572C7.34405 19.2464 7.20137 19.1943 7.08075 19.1067C6.96014 19.0191 6.8664 18.8995 6.81009 18.7615C6.75379 18.6235 6.73716 18.4725 6.76208 18.3255L7.54053 13.7845L4.24113 10.5683C4.1344 10.4641 4.05892 10.3321 4.02324 10.1872C3.98755 10.0424 3.99306 9.89047 4.03916 9.7486C4.08526 9.60673 4.1701 9.48057 4.28411 9.38437C4.39812 9.28817 4.53675 9.22576 4.68436 9.20419L9.24383 8.54175L11.2832 4.4103C11.3566 4.28537 11.4614 4.18179 11.5872 4.10982C11.713 4.03786 11.8555 4 12.0004 4C12.1453 4 12.2878 4.03786 12.4136 4.10982C12.5394 4.18179 12.6442 4.28537 12.7176 4.4103L14.7562 8.54175L19.3156 9.20419C19.4632 9.22576 19.6019 9.28817 19.7159 9.38437C19.8299 9.48057 19.9147 9.60673 19.9608 9.7486C20.0069 9.89047 20.0125 10.0424 19.9768 10.1872C19.9411 10.3321 19.8656 10.4641 19.7589 10.5683L16.4595 13.7845L17.2387 18.3255C17.2584 18.4403 17.2528 18.558 17.2223 18.6704C17.1917 18.7828 17.137 18.8872 17.062 18.9763C16.9869 19.0653 16.8934 19.1369 16.7878 19.1861C16.6822 19.2352 16.5671 19.2607 16.4507 19.2608H16.4499Z" fill="#5050FD"/>
<path d="M43.4499 19.2608C43.3202 19.2605 43.1925 19.2286 43.0778 19.168L39 17.0239L34.9222 19.168C34.7901 19.2372 34.6414 19.2681 34.4927 19.2572C34.344 19.2464 34.2014 19.1943 34.0808 19.1067C33.9601 19.0191 33.8664 18.8995 33.8101 18.7615C33.7538 18.6235 33.7372 18.4725 33.7621 18.3255L34.5405 13.7845L31.2411 10.5683C31.1344 10.4641 31.0589 10.3321 31.0232 10.1872C30.9875 10.0424 30.9931 9.89047 31.0392 9.7486C31.0853 9.60673 31.1701 9.48057 31.2841 9.38437C31.3981 9.28817 31.5368 9.22576 31.6844 9.20419L36.2438 8.54175L38.2832 4.4103C38.3566 4.28537 38.4614 4.18179 38.5872 4.10982C38.713 4.03786 38.8555 4 39.0004 4C39.1453 4 39.2878 4.03786 39.4136 4.10982C39.5394 4.18179 39.6442 4.28537 39.7176 4.4103L41.7562 8.54175L46.3156 9.20419C46.4632 9.22576 46.6019 9.28817 46.7159 9.38437C46.8299 9.48057 46.9147 9.60673 46.9608 9.7486C47.0069 9.89047 47.0125 10.0424 46.9768 10.1872C46.9411 10.3321 46.8656 10.4641 46.7589 10.5683L43.4595 13.7845L44.2387 18.3255C44.2584 18.4403 44.2528 18.558 44.2223 18.6704C44.1917 18.7828 44.137 18.8872 44.062 18.9763C43.9869 19.0653 43.8934 19.1369 43.7878 19.1861C43.6822 19.2352 43.5671 19.2607 43.4507 19.2608H43.4499Z" fill="#5050FD"/>
<path d="M70.4499 19.2608C70.3202 19.2605 70.1925 19.2286 70.0778 19.168L66 17.0239L61.9222 19.168C61.7901 19.2372 61.6414 19.2681 61.4927 19.2572C61.344 19.2464 61.2014 19.1943 61.0808 19.1067C60.9601 19.0191 60.8664 18.8995 60.8101 18.7615C60.7538 18.6235 60.7372 18.4725 60.7621 18.3255L61.5405 13.7845L58.2411 10.5683C58.1344 10.4641 58.0589 10.3321 58.0232 10.1872C57.9875 10.0424 57.9931 9.89047 58.0392 9.7486C58.0853 9.60673 58.1701 9.48057 58.2841 9.38437C58.3981 9.28817 58.5368 9.22576 58.6844 9.20419L63.2438 8.54175L65.2832 4.4103C65.3566 4.28537 65.4614 4.18179 65.5872 4.10982C65.713 4.03786 65.8555 4 66.0004 4C66.1453 4 66.2878 4.03786 66.4136 4.10982C66.5394 4.18179 66.6442 4.28537 66.7176 4.4103L68.7562 8.54175L73.3156 9.20419C73.4632 9.22576 73.6019 9.28817 73.7159 9.38437C73.8299 9.48057 73.9147 9.60673 73.9608 9.7486C74.0069 9.89047 74.0125 10.0424 73.9768 10.1872C73.9411 10.3321 73.8656 10.4641 73.7589 10.5683L70.4595 13.7845L71.2387 18.3255C71.2584 18.4403 71.2528 18.558 71.2223 18.6704C71.1917 18.7828 71.137 18.8872 71.062 18.9763C70.9869 19.0653 70.8934 19.1369 70.7878 19.1861C70.6822 19.2352 70.5671 19.2607 70.4507 19.2608H70.4499Z" fill="#5050FD"/>
<path d="M97.4499 19.2608C97.3202 19.2605 97.1925 19.2286 97.0778 19.168L93 17.0239L88.9222 19.168C88.7901 19.2372 88.6414 19.2681 88.4927 19.2572C88.3441 19.2464 88.2014 19.1943 88.0808 19.1067C87.9601 19.0191 87.8664 18.8995 87.8101 18.7615C87.7538 18.6235 87.7372 18.4725 87.7621 18.3255L88.5405 13.7845L85.2411 10.5683C85.1344 10.4641 85.0589 10.3321 85.0232 10.1872C84.9875 10.0424 84.9931 9.89047 85.0392 9.7486C85.0853 9.60673 85.1701 9.48057 85.2841 9.38437C85.3981 9.28817 85.5368 9.22576 85.6844 9.20419L90.2438 8.54175L92.2832 4.4103C92.3566 4.28537 92.4614 4.18179 92.5872 4.10982C92.7131 4.03786 92.8555 4 93.0004 4C93.1453 4 93.2878 4.03786 93.4136 4.10982C93.5394 4.18179 93.6442 4.28537 93.7176 4.4103L95.7562 8.54175L100.316 9.20419C100.463 9.22576 100.602 9.28817 100.716 9.38437C100.83 9.48057 100.915 9.60673 100.961 9.7486C101.007 9.89047 101.012 10.0424 100.977 10.1872C100.941 10.3321 100.866 10.4641 100.759 10.5683L97.4595 13.7845L98.2387 18.3255C98.2584 18.4403 98.2528 18.558 98.2223 18.6704C98.1917 18.7828 98.137 18.8872 98.062 18.9763C97.9869 19.0653 97.8934 19.1369 97.7878 19.1861C97.6822 19.2352 97.5671 19.2607 97.4507 19.2608H97.4499Z" fill="#5050FD"/>
<path d="M124.45 19.2608C124.32 19.2605 124.193 19.2286 124.078 19.168L120 17.0239L115.922 19.168C115.79 19.2372 115.641 19.2681 115.493 19.2572C115.344 19.2464 115.201 19.1943 115.081 19.1067C114.96 19.0191 114.866 18.8995 114.81 18.7615C114.754 18.6235 114.737 18.4725 114.762 18.3255L115.541 13.7845L112.241 10.5683C112.134 10.4641 112.059 10.3321 112.023 10.1872C111.988 10.0424 111.993 9.89047 112.039 9.7486C112.085 9.60673 112.17 9.48057 112.284 9.38437C112.398 9.28817 112.537 9.22576 112.684 9.20419L117.244 8.54175L119.283 4.4103C119.357 4.28537 119.461 4.18179 119.587 4.10982C119.713 4.03786 119.855 4 120 4C120.145 4 120.288 4.03786 120.414 4.10982C120.539 4.18179 120.644 4.28537 120.718 4.4103L122.756 8.54175L127.316 9.20419C127.463 9.22576 127.602 9.28817 127.716 9.38437C127.83 9.48057 127.915 9.60673 127.961 9.7486C128.007 9.89047 128.012 10.0424 127.977 10.1872C127.941 10.3321 127.866 10.4641 127.759 10.5683L124.459 13.7845L125.239 18.3255C125.258 18.4403 125.253 18.558 125.222 18.6704C125.192 18.7828 125.137 18.8872 125.062 18.9763C124.987 19.0653 124.893 19.1369 124.788 19.1861C124.682 19.2352 124.567 19.2607 124.451 19.2608H124.45Z" fill="#5050FD"/>
</svg>
