<svg width="24" height="24" viewBox="0 0 24 24" fill="none" xmlns="http://www.w3.org/2000/svg">
<path d="M16.4499 19.2608C16.3202 19.2605 16.1925 19.2286 16.0778 19.168L12 17.0239L7.92215 19.168C7.79012 19.2372 7.64138 19.2681 7.49271 19.2572C7.34405 19.2464 7.20137 19.1943 7.08075 19.1067C6.96014 19.0191 6.8664 18.8995 6.81009 18.7615C6.75379 18.6235 6.73716 18.4725 6.76208 18.3255L7.54053 13.7845L4.24113 10.5683C4.1344 10.4641 4.05892 10.3321 4.02324 10.1872C3.98755 10.0424 3.99306 9.89047 4.03916 9.7486C4.08526 9.60673 4.1701 9.48057 4.28411 9.38437C4.39812 9.28817 4.53675 9.22576 4.68436 9.20419L9.24383 8.54175L11.2832 4.4103C11.3566 4.28537 11.4614 4.18179 11.5872 4.10982C11.713 4.03786 11.8555 4 12.0004 4C12.1453 4 12.2878 4.03786 12.4136 4.10982C12.5394 4.18179 12.6442 4.28537 12.7176 4.4103L14.7562 8.54175L19.3156 9.20419C19.4632 9.22576 19.6019 9.28817 19.7159 9.38437C19.8299 9.48057 19.9147 9.60673 19.9608 9.7486C20.0069 9.89047 20.0125 10.0424 19.9768 10.1872C19.9411 10.3321 19.8656 10.4641 19.7589 10.5683L16.4595 13.7845L17.2387 18.3255C17.2584 18.4403 17.2528 18.558 17.2223 18.6704C17.1917 18.7828 17.137 18.8872 17.062 18.9763C16.9869 19.0653 16.8934 19.1369 16.7878 19.1861C16.6822 19.2352 16.5671 19.2607 16.4507 19.2608H16.4499Z" fill="#5050FD"/>
</svg>
