<svg width="24" height="24" viewBox="0 0 24 24" fill="none" xmlns="http://www.w3.org/2000/svg">
<path d="M16.372 9.71067C16.8493 9.416 17.168 9.016 17.3227 8.50533C16.8854 8.74207 16.416 8.91409 15.9293 9.016C15.7303 8.79708 15.4866 8.62344 15.2148 8.50682C14.9429 8.3902 14.6491 8.33331 14.3533 8.34C13.7347 8.34 13.2133 8.55733 12.7867 8.97867C12.5811 9.17922 12.4186 9.41956 12.309 9.68503C12.1994 9.95049 12.1451 10.2355 12.1493 10.5227C12.1493 10.7053 12.172 10.8693 12.2187 11.008C10.3947 10.944 8.88667 10.1893 7.69733 8.73333C7.50225 9.0649 7.39787 9.44198 7.39467 9.82667C7.39467 10.5973 7.72 11.208 8.368 11.6573C8.0275 11.6343 7.69576 11.5393 7.39467 11.3787C7.39467 11.9293 7.556 12.3893 7.88133 12.7947C8.20533 13.1947 8.624 13.4507 9.13333 13.5587C8.94377 13.6067 8.74888 13.6304 8.55333 13.6293C8.41987 13.637 8.28614 13.6203 8.15867 13.58C8.29733 14.0293 8.55333 14.392 8.924 14.6707C9.29333 14.9507 9.72 15.0973 10.2 15.1107C9.42956 15.7232 8.47083 16.0502 7.48667 16.036C7.236 16.036 7.06 16.0333 6.95333 16.0133C7.95287 16.6635 9.12236 17.0035 10.3147 16.9907C11.5827 16.9907 12.704 16.6693 13.6773 16.0267C14.6507 15.388 15.372 14.6 15.8333 13.6707C16.2901 12.7727 16.5282 11.7795 16.528 10.772V10.4933C16.976 10.156 17.34 9.776 17.6187 9.35467C17.222 9.53156 16.8023 9.65142 16.372 9.71067ZM12 24C8.68 24 5.82 22.8133 3.49867 20.472C1.17733 18.1373 0 15.2867 0 12C0 8.68267 1.17867 5.82133 3.50267 3.5C5.82267 1.17867 8.68133 0 12 0C15.288 0 18.1387 1.17733 20.472 3.49867C22.8133 5.82133 24 8.68267 24 12C24 15.2867 22.8147 18.1387 20.4747 20.476C18.14 22.8133 15.2893 24 12 24ZM12 2.66667C9.37867 2.66667 7.216 3.556 5.38933 5.38667C3.556 7.216 2.66667 9.37867 2.66667 12C2.66667 14.592 3.55733 16.7493 5.39067 18.5933C7.22 20.4373 9.38133 21.3333 12 21.3333C14.5907 21.3333 16.7467 20.436 18.5893 18.5907C20.436 16.7453 21.3333 14.588 21.3333 12C21.3333 9.38267 20.4373 7.22 18.5933 5.39067C16.7493 3.55733 14.5933 2.66667 12 2.66667Z" fill="#8F9097"/>
</svg>
