<svg width="16" height="16" viewBox="0 0 16 16" fill="none" xmlns="http://www.w3.org/2000/svg">
<rect width="16" height="16" rx="2" fill="#EFF0F6" fill-opacity="0.75"/>
<path d="M6.58599 11.4953C6.45416 11.4953 6.32529 11.4562 6.21568 11.3829C6.10608 11.3097 6.02065 11.2056 5.9702 11.0838C5.91976 10.962 5.90655 10.8279 5.93227 10.6986C5.95798 10.5693 6.02145 10.4506 6.11466 10.3573L8.47132 8L6.11466 5.64267C5.99322 5.51693 5.92602 5.34853 5.92754 5.17373C5.92906 4.99894 5.99917 4.83173 6.12278 4.70812C6.24638 4.58452 6.41359 4.5144 6.58839 4.51288C6.76319 4.51137 6.93159 4.57856 7.05732 4.7L9.88532 7.52867C10.0103 7.65369 10.0805 7.82322 10.0805 8C10.0805 8.17678 10.0103 8.34632 9.88532 8.47133L7.05732 11.3C6.9955 11.362 6.92203 11.4112 6.84114 11.4447C6.76026 11.4782 6.67355 11.4954 6.58599 11.4953Z" fill="black"/>
</svg>
