<svg width="16" height="16" viewBox="0 0 16 16" fill="none" xmlns="http://www.w3.org/2000/svg">
<rect width="16" height="16" rx="2" fill="#EFF0F6" fill-opacity="0.75"/>
<path d="M9.41399 11.4953C9.32643 11.4954 9.23972 11.4782 9.15883 11.4447C9.07795 11.4112 9.00448 11.362 8.94266 11.3L6.11466 8.47133C5.98967 8.34632 5.91946 8.17678 5.91946 8C5.91946 7.82322 5.98967 7.65369 6.11466 7.52867L8.94266 4.7C9.06839 4.57856 9.23679 4.51137 9.41159 4.51288C9.58639 4.5144 9.7536 4.58452 9.8772 4.70812C10.0008 4.83173 10.0709 4.99894 10.0724 5.17373C10.074 5.34853 10.0068 5.51693 9.88532 5.64267L7.52866 8L9.88532 10.3573C9.97853 10.4506 10.042 10.5693 10.0677 10.6986C10.0934 10.8279 10.0802 10.962 10.0298 11.0838C9.97933 11.2056 9.8939 11.3097 9.78429 11.3829C9.67469 11.4562 9.54582 11.4953 9.41399 11.4953Z" fill="black"/>
</svg>
