<svg width="192" height="150" viewBox="0 0 192 150" fill="none" xmlns="http://www.w3.org/2000/svg">
<path fill-rule="evenodd" clip-rule="evenodd" d="M133.553 56.0072L148.919 38.7027L126.356 33.7655L128.656 10.6996L107.509 20.0152L95.8571 0L84.2109 20.0132L63.0691 10.6908L65.3629 33.7567L42.7968 38.691L58.16 56.0004L42.7939 73.304L65.3571 78.2412L63.0584 101.306L84.2032 91.9896L95.8571 112.005L107.502 91.9916L128.646 101.313L126.352 78.2471L148.916 73.3137L133.553 56.0072ZM141.007 69.0248L127.697 64.4549L118.867 52.9341L130.612 57.3144L141.007 69.0248ZM105.348 89.5997L97.3879 103.28V88.7746L105.662 76.6551L105.348 89.5997ZM91.405 32.8849L77.7081 27.9963L69.5128 16.8895L83.8769 23.2234L91.405 32.8849ZM107.844 23.2263L122.207 16.8963L114.006 27.9954L100.313 32.884L107.844 23.2263ZM123.214 34.4196L116.071 44.5856L116.476 29.8138L124.795 18.5534L123.214 34.4196ZM95.8571 85.58L86.2733 71.5449L95.8571 58.4924L105.44 71.5449L95.8571 85.58ZM78.8129 48.5149L78.3472 31.4864L94.3262 37.1895V53.7622L78.8129 48.5149ZM97.3879 37.1895L113.367 31.4864L112.9 48.5159L97.3879 53.7622V37.1895ZM68.5049 34.4128L66.9266 18.5505L75.2381 29.8128L75.6419 44.5817L68.5049 34.4128ZM93.3793 56.6856L83.7994 69.7333L67.526 64.9175L77.8601 51.4374L93.3793 56.6856ZM86.0496 76.6532L94.3262 88.7746V103.283L86.3585 89.5978L86.0496 76.6532ZM98.3338 56.6856L113.855 51.4374L124.189 64.9175L107.914 69.7342L98.3338 56.6856ZM143.147 40.5862L131.057 54.2024L116.799 48.8852L125.365 36.6938L143.147 40.5862ZM95.8571 6.09377L105.029 21.8481L95.8571 33.6119L86.6906 21.8472L95.8571 6.09377ZM48.5705 40.5736L66.3553 36.686L74.9147 48.8833L60.6591 54.1927L48.5705 40.5736ZM61.1006 57.3067L72.8504 52.9312L64.018 64.453L50.7026 69.017L61.1006 57.3067ZM51.3755 72.0347L64.9833 67.3706L79.1566 71.5643L66.945 75.4422L51.3755 72.0347ZM68.44 78.1907L82.9134 73.5936L83.2823 89.037L66.6284 96.3767L68.44 78.1907ZM108.424 89.0409L108.799 73.5946L123.27 78.1965L125.079 96.3835L108.424 89.0409ZM124.765 75.448L112.554 71.5653L126.732 67.3706L140.341 72.0435L124.765 75.448Z" fill="#DD1100"/>
<path fill-rule="evenodd" clip-rule="evenodd" d="M0 123.775H6.60832L9.71835 141.007L14.3021 123.775H20.1116L25.5531 141.308L28.7348 123.775H35.0139L29.6421 149.56H22.3928L17.5718 133.473L12.6405 149.559H5.03491L0 123.775ZM191.714 149.56H185.106L182 132.265L177.413 149.559H171.6L166.183 132.03L162.98 149.559H156.699L162.072 123.774H169.32L174.14 139.875L179.076 123.775H186.678L191.714 149.56ZM48.8532 123.328C57.214 123.328 61.576 128.392 61.576 136.667C61.576 144.867 57.1414 150 48.8532 150C40.5678 150 36.1332 144.867 36.1332 136.667C36.1332 128.393 40.4942 123.328 48.8532 123.328ZM48.8532 144.902C52.9615 144.902 54.5949 140.913 54.5949 136.667C54.5949 132.193 52.9615 128.428 48.8532 128.428C44.7449 128.428 43.1105 132.193 43.1105 136.667C43.1105 140.914 44.7458 144.902 48.8532 144.902ZM65.357 123.771H72.1183V144.459H82.5861V149.554H65.357V123.771ZM85.3853 123.771H102.354V128.648H92.1447V134.302H101.918V139.175H92.1447V149.554H85.3853V123.771ZM105.889 123.771H117.955C122.464 123.771 126.135 125.839 126.135 130.275C126.135 133.712 124.536 136 121.265 136.775V136.851C123.443 137.442 123.592 139.401 124.863 142.541L127.332 149.554H120.283L118.831 144.902C117.446 140.471 116.577 139.361 114.069 139.361H112.648V149.554H105.889V123.771ZM112.647 134.488H114.433C116.611 134.488 119.375 134.413 119.375 131.493C119.375 129.093 117.012 128.648 114.433 128.648H112.648L112.647 134.488ZM137.574 123.771H145.863L155.64 149.554H148.225L146.335 144.053H136.814L134.814 149.554H127.942L137.574 123.771ZM141.719 129.094H141.649L138.378 139.175H144.735L141.719 129.094Z" fill="#FFFDFC"/>
</svg>
