<svg width="100" height="15" viewBox="0 0 100 15" fill="none" xmlns="http://www.w3.org/2000/svg">
<path fill-rule="evenodd" clip-rule="evenodd" d="M11.7583 15L8 13.0239L4.24165 15H11.7583ZM2.96118 15C2.89736 14.9304 2.84608 14.8497 2.81009 14.7615C2.75379 14.6235 2.73716 14.4725 2.76208 14.3255L3.54053 9.78447L0.241133 6.56827C0.134398 6.46406 0.0589249 6.33208 0.0232352 6.18724C0.00772931 6.12432 1.2541e-06 6.06005 0 5.99585V15H2.96118ZM0 5.99582C1.63224e-06 5.91226 0.0130921 5.82882 0.0391587 5.7486C0.0852565 5.60673 0.170101 5.48057 0.28411 5.38437C0.39812 5.28817 0.536754 5.22576 0.684359 5.20419L5.24383 4.54175L7.28316 0.410304C7.35662 0.285369 7.46144 0.18179 7.58724 0.109824C7.71305 0.0378575 7.85547 0 8.0004 0C8.14533 0 8.28775 0.0378575 8.41355 0.109824C8.53936 0.18179 8.64418 0.285369 8.71764 0.410304L10.7562 4.54175L15.3156 5.20419C15.4632 5.22576 15.6019 5.28817 15.7159 5.38437C15.8299 5.48057 15.9147 5.60673 15.9608 5.7486C16.0069 5.89047 16.0125 6.0424 15.9768 6.18724C15.9411 6.33208 15.8656 6.46406 15.7589 6.56827L12.4595 9.78447L13.2387 14.3255C13.2584 14.4403 13.2528 14.558 13.2223 14.6704C13.1917 14.7828 13.137 14.8872 13.062 14.9763C13.0552 14.9843 13.0483 14.9922 13.0412 15H23.9612C23.8974 14.9304 23.8461 14.8497 23.8101 14.7615C23.7538 14.6235 23.7372 14.4725 23.7621 14.3255L24.5405 9.78447L21.2411 6.56827C21.1344 6.46406 21.0589 6.33208 21.0232 6.18724C20.9875 6.0424 20.9931 5.89047 21.0392 5.7486C21.0853 5.60673 21.1701 5.48057 21.2841 5.38437C21.3981 5.28817 21.5368 5.22576 21.6844 5.20419L26.2438 4.54175L28.2832 0.410304C28.3566 0.285369 28.4614 0.18179 28.5872 0.109824C28.713 0.0378575 28.8555 0 29.0004 0C29.1453 0 29.2878 0.0378575 29.4136 0.109824C29.5394 0.18179 29.6442 0.285369 29.7176 0.410304L31.7562 4.54175L36.3156 5.20419C36.4632 5.22576 36.6019 5.28817 36.7159 5.38437C36.8299 5.48057 36.9147 5.60673 36.9608 5.7486C37.0069 5.89047 37.0125 6.0424 36.9768 6.18724C36.9411 6.33208 36.8656 6.46406 36.7589 6.56827L33.4595 9.78447L34.2387 14.3255C34.2584 14.4403 34.2528 14.558 34.2223 14.6704C34.1917 14.7828 34.137 14.8872 34.062 14.9763C34.0552 14.9843 34.0483 14.9922 34.0412 15H44.9612C44.8974 14.9304 44.8461 14.8497 44.8101 14.7615C44.7538 14.6235 44.7372 14.4725 44.7621 14.3255L45.5405 9.78447L42.2411 6.56827C42.1344 6.46406 42.0589 6.33208 42.0232 6.18724C41.9875 6.0424 41.9931 5.89047 42.0392 5.7486C42.0853 5.60673 42.1701 5.48057 42.2841 5.38437C42.3981 5.28817 42.5368 5.22576 42.6844 5.20419L47.2438 4.54175L49.2832 0.410304C49.3566 0.285369 49.4614 0.18179 49.5872 0.109824C49.7131 0.0378575 49.8555 0 50.0004 0C50.1453 0 50.2878 0.0378575 50.4136 0.109824C50.5394 0.18179 50.6442 0.285369 50.7176 0.410304L52.7562 4.54175L57.3156 5.20419C57.4632 5.22576 57.6019 5.28817 57.7159 5.38437C57.8299 5.48057 57.9147 5.60673 57.9608 5.7486C58.0069 5.89047 58.0125 6.0424 57.9768 6.18724C57.9411 6.33208 57.8656 6.46406 57.7589 6.56827L54.4595 9.78447L55.2387 14.3255C55.2584 14.4403 55.2528 14.558 55.2223 14.6704C55.1917 14.7828 55.137 14.8872 55.062 14.9763C55.0552 14.9843 55.0483 14.9922 55.0412 15H65.9612C65.8974 14.9304 65.8461 14.8497 65.8101 14.7615C65.7538 14.6235 65.7372 14.4725 65.7621 14.3255L66.5405 9.78447L63.2411 6.56827C63.1344 6.46406 63.0589 6.33208 63.0232 6.18724C62.9875 6.0424 62.9931 5.89047 63.0392 5.7486C63.0853 5.60673 63.1701 5.48057 63.2841 5.38437C63.3981 5.28817 63.5368 5.22576 63.6844 5.20419L68.2438 4.54175L70.2832 0.410304C70.3566 0.285369 70.4614 0.18179 70.5872 0.109824C70.7131 0.0378575 70.8555 0 71.0004 0C71.1453 0 71.2878 0.0378575 71.4136 0.109824C71.5394 0.18179 71.6442 0.285369 71.7176 0.410304L73.7562 4.54175L78.3156 5.20419C78.4632 5.22576 78.6019 5.28817 78.7159 5.38437C78.8299 5.48057 78.9147 5.60673 78.9608 5.7486C79.0069 5.89047 79.0125 6.0424 78.9768 6.18724C78.9411 6.33208 78.8656 6.46406 78.7589 6.56827L75.4595 9.78447L76.2387 14.3255C76.2584 14.4403 76.2528 14.558 76.2223 14.6704C76.1917 14.7828 76.137 14.8872 76.062 14.9763C76.0552 14.9843 76.0483 14.9922 76.0412 15H86.9612C86.8974 14.9304 86.8461 14.8497 86.8101 14.7615C86.7538 14.6235 86.7372 14.4725 86.7621 14.3255L87.5405 9.78447L84.2411 6.56827C84.1344 6.46406 84.0589 6.33208 84.0232 6.18724C83.9875 6.0424 83.9931 5.89047 84.0392 5.7486C84.0853 5.60673 84.1701 5.48057 84.2841 5.38437C84.3981 5.28817 84.5368 5.22576 84.6844 5.20419L89.2438 4.54175L91.2832 0.410304C91.3566 0.285369 91.4614 0.18179 91.5872 0.109824C91.7131 0.0378575 91.8555 0 92.0004 0C92.1453 0 92.2878 0.0378575 92.4136 0.109824C92.5394 0.18179 92.6442 0.285369 92.7176 0.410304L94.7562 4.54175L99.3156 5.20419C99.4632 5.22576 99.6019 5.28817 99.7159 5.38437C99.8299 5.48057 99.9147 5.60673 99.9608 5.7486C99.9866 5.82801 99.9997 5.91058 100 5.99329V0H92.0004H71.0004H50.0004H29.0004H8.0004H0V5.99582ZM71 13.0239L74.7584 15H67.2417L71 13.0239ZM100 5.99838C99.9998 6.06174 99.9921 6.12514 99.9768 6.18724C99.9411 6.33208 99.8656 6.46406 99.7589 6.56827L96.4595 9.78447L97.2387 14.3255C97.2584 14.4403 97.2528 14.558 97.2223 14.6704C97.1917 14.7828 97.137 14.8872 97.062 14.9763C97.0587 14.9802 97.0554 14.984 97.0521 14.9878C97.0485 14.9919 97.0449 14.996 97.0412 15H100V5.99838ZM95.7584 15L92 13.0239L88.2417 15H95.7584ZM50 13.0239L53.7584 15H46.2416L50 13.0239ZM32.7584 15L29 13.0239L25.2416 15H32.7584Z" fill="#F7F7FC"/>
</svg>
